<?xml version="1.0" encoding="UTF-8"?>
<svg version="1.1" xmlns="http://www.w3.org/2000/svg" width="649" height="667">
<path d="M0 0 C214.17 0 428.34 0 649 0 C649 220.11 649 440.22 649 667 C434.83 667 220.66 667 0 667 C0 446.89 0 226.78 0 0 Z " fill="#FDFDFD" transform="translate(0,0)"/>
<path d="M0 0 C214.17 0 428.34 0 649 0 C649 220.11 649 440.22 649 667 C434.83 667 220.66 667 0 667 C0 446.89 0 226.78 0 0 Z M78 80 C56.16017014 104.08341864 43.59304631 135.01723832 43.68432617 167.4621582 C43.68748152 169.79881736 43.66395393 172.13419971 43.63867188 174.47070312 C43.57864252 188.15459755 45.6090952 200.7590916 50.6875 213.5625 C51.03707764 214.45525635 51.38665527 215.3480127 51.74682617 216.26782227 C61.69916348 241.02038502 80.08413831 261.9512655 102 277 C102.65323242 277.44875488 103.30646484 277.89750977 103.97949219 278.35986328 C133.9670272 298.65045547 167.45848052 311.89703716 201.25 324.3125 C202.16533508 324.64949921 203.08067017 324.98649841 204.02374268 325.33370972 C206.62291203 326.28751534 209.22480009 327.23338459 211.828125 328.17578125 C213.00249619 328.60599075 213.00249619 328.60599075 214.20059204 329.04489136 C217.25854373 330.1416953 219.72522476 331 223 331 C222.91575303 350.22949508 222.82049526 369.45890642 222.71247292 388.68828297 C222.66255635 397.61875037 222.61611288 406.54920955 222.578125 415.47973633 C222.54496844 423.27233055 222.50501081 431.06485669 222.45720994 438.85737532 C222.43217752 442.97549342 222.41033064 447.09356772 222.39665604 451.21174049 C222.3402174 467.56521814 222.27195702 483.77113624 220 500 C219.6602626 502.66589613 219.33065178 505.33295635 219 508 C218.72325439 507.3608667 218.44650879 506.7217334 218.16137695 506.06323242 C216.87942974 503.10421546 215.59597143 500.14585613 214.3125 497.1875 C213.65991211 495.68026367 213.65991211 495.68026367 212.99414062 494.14257812 C212.55908203 493.14033203 212.12402344 492.13808594 211.67578125 491.10546875 C211.2370166 490.09403809 210.79825195 489.08260742 210.34619141 488.04052734 C209.01870958 485.04225773 207.62744706 482.07966088 206.23046875 479.11328125 C204.52693128 475.3638879 203.31283012 472.1464211 203 468 C202.94730957 467.35144043 202.89461914 466.70288086 202.84033203 466.03466797 C202.68886488 463.83417303 202.61834337 461.64235018 202.5625 459.4375 C202.51673828 458.69564453 202.47097656 457.95378906 202.42382812 457.18945312 C202.37850547 454.97652511 202.43411394 453.14216419 203 451 C205.82421875 448.33203125 205.82421875 448.33203125 209 446 C213.25404821 439.49166984 215.7283325 432.63000497 217 425 C215.76379926 425.86503377 214.53642741 426.74268634 213.3125 427.625 C212.62800781 428.11226563 211.94351563 428.59953125 211.23828125 429.1015625 C208.32043236 431.46621011 208.32043236 431.46621011 204 437 C203.34 431.72 202.68 426.44 202 421 C202.99 420.67 203.98 420.34 205 420 C209.45221876 415.14198005 213.81520603 409.32629144 214.1875 402.625 C214.125625 401.75875 214.06375 400.8925 214 400 C212.35 399.67 210.7 399.34 209 399 C207.68 400.98 206.36 402.96 205 405 C204.01 401.535 204.01 401.535 203 398 C201.35 397.67 199.7 397.34 198 397 C197.34 399.31 196.68 401.62 196 404 C194.35 402.35 192.7 400.7 191 399 C190.01 399.33 189.02 399.66 188 400 C188.99 404.95 188.99 404.95 190 410 C189.34 410 188.68 410 188 410 C188.5061314 414.42864971 189.84889946 416.84889946 193 420 C194.76059393 420.91754047 194.76059393 420.91754047 196.6484375 421.6484375 C197.75445312 422.09445312 198.86046875 422.54046875 200 423 C200.1100174 437.0399129 200.07870346 450.99611759 199 465 C198.68289062 464.36835938 198.36578125 463.73671875 198.0390625 463.0859375 C190.37721573 448.39720363 179.8172109 435.68211236 169.1875 423.0625 C168.71900635 422.50618896 168.2505127 421.94987793 167.76782227 421.37670898 C165.14192539 418.27224339 165.14192539 418.27224339 162.23828125 415.43359375 C160.45124386 413.36468926 160.36169074 411.71268054 160 409 C159.8978418 408.35434082 159.79568359 407.70868164 159.69042969 407.04345703 C158.18276701 396.80182702 158.00752482 389.43788158 164.30371094 380.95214844 C165.13675251 379.85590462 165.97283325 378.7619633 166.81201172 377.67041016 C169.9473656 373.26184228 172.26676617 368.10173609 174 363 C173.67 362.01 173.34 361.02 173 360 C163.85055481 365.42645817 163.85055481 365.42645817 157 373 C154.94536888 364.90988998 153.56545959 358.57567321 158 351 C157.34 351 156.68 351 156 351 C156.33 346.71 156.66 342.42 157 338 C156.34 338 155.68 338 155 338 C154.34 341.63 153.68 345.26 153 349 C151.68 343.72 150.36 338.44 149 333 C148.67 333.99 148.34 334.98 148 336 C147.34 336 146.68 336 146 336 C145.505 334.515 145.505 334.515 145 333 C144.67 333.66 144.34 334.32 144 335 C144.90244325 337.17921184 145.89684882 339.32080135 146.9375 341.4375 C150 347.68109339 150 347.68109339 150 351 C149.236875 350.195625 148.47375 349.39125 147.6875 348.5625 C145.20569102 345.83200976 145.20569102 345.83200976 142 345 C142.17625835 347.37948772 142.69719773 348.70225849 144.40234375 350.37890625 C145.90649092 351.62115486 147.45129851 352.81376056 149 354 C148.01 354.66 147.02 355.32 146 356 C147.06645115 357.29633621 147.06645115 357.29633621 149.5625 357.0625 C150.7690625 357.0315625 150.7690625 357.0315625 152 357 C152.12117188 358.24652344 152.24234375 359.49304688 152.3671875 360.77734375 C153.38433843 371.14879702 154.49030172 381.50287778 155.74121094 391.84863281 C156.21078184 395.7522732 156.66688767 399.6575014 157.125 403.5625 C157.29421669 405.00130845 157.46348224 406.44011116 157.6328125 407.87890625 C157.75398438 408.90886719 157.87515625 409.93882812 158 411 C141.19297943 397.24453345 127.79931277 379.49311225 118.5625 359.9375 C118.19552002 359.19338867 117.82854004 358.44927734 117.45043945 357.68261719 C114.30015254 350.75854113 114.80536956 345.5643072 117.19140625 338.4453125 C117.64386719 337.34960938 118.09632812 336.25390625 118.5625 335.125 C120.84099774 329.05339619 122.13939749 323.47657523 121 317 C120.34 316.34 119.68 315.68 119 315 C115.85378923 315.16134414 114.43283786 315.56716214 112.1875 317.8125 C110.68193876 320.17106254 110.68193876 320.17106254 111 324 C110.4225 323.484375 109.845 322.96875 109.25 322.4375 C107.14699559 320.74615299 107.14699559 320.74615299 104.9375 321.3125 C104.298125 321.539375 103.65875 321.76625 103 322 C102.01 322 101.02 322 100 322 C99.236875 321.195625 98.47375 320.39125 97.6875 319.5625 C94.67062507 316.68594483 93.07710437 316.28444914 89 316 C88.07662563 324.86439398 93.01033695 329.82285328 98.3125 336.5 C99.53744745 338.00344752 100.76513893 339.50468437 102 341 C101.19949219 340.67515625 101.19949219 340.67515625 100.3828125 340.34375 C94.73583121 338.23345941 89.03458013 336.83643256 83 338 C80.77465305 340.73709522 80.77465305 340.73709522 81 343.4375 C82.44200581 347.13263988 84.56367518 348.14967125 88 350 C91.29637342 350.81008872 94.47757238 351.16350327 97.86328125 351.31640625 C98.74951172 351.35830078 99.63574219 351.40019531 100.54882812 351.44335938 C101.9168457 351.50233398 101.9168457 351.50233398 103.3125 351.5625 C104.24384766 351.60568359 105.17519531 351.64886719 106.13476562 351.69335938 C108.42304454 351.79897225 110.71142372 351.90107752 113 352 C113.32613281 352.79664063 113.65226562 353.59328125 113.98828125 354.4140625 C114.42527344 355.47367187 114.86226563 356.53328125 115.3125 357.625 C115.95638672 359.19121094 115.95638672 359.19121094 116.61328125 360.7890625 C117.96687115 363.92329038 119.44438284 366.96175652 121 370 C119.92621094 369.71125 118.85242188 369.4225 117.74609375 369.125 C116.31001239 368.74955389 114.87380779 368.37457895 113.4375 368 C112.73302734 367.80921875 112.02855469 367.6184375 111.30273438 367.421875 C106.72939791 366.24165914 102.72223635 365.80143027 98 366 C104.1657595 372.51725173 111.82048241 378.72256072 121.0625 379.16015625 C123.12931342 378.98931079 125.00721753 378.56491825 127 378 C127.20238281 378.66257812 127.40476562 379.32515625 127.61328125 380.0078125 C129.53771162 384.16024535 132.2695449 387.37289793 135.1875 390.875 C136.10450684 391.99394653 136.10450684 391.99394653 137.04003906 393.13549805 C140.86154887 397.71365128 144.88293705 401.87829695 149.24536133 405.93945312 C159.21877893 415.25817921 159.21877893 415.25817921 159.64453125 423.76171875 C160.80849979 434.36534427 166.79090843 445.33740809 174 453 C174.60457031 453.69351562 175.20914063 454.38703125 175.83203125 455.1015625 C180.10794021 459.75194007 184.50113274 462.66027451 190.19140625 465.3828125 C199.25903701 470.60395177 202.54375484 477.28769232 206.6875 486.75 C207.24647301 487.98769117 207.80701099 489.2246768 208.36914062 490.4609375 C219.08768393 514.16708848 219.08768393 514.16708848 214.65625 526.3125 C214.4396875 526.869375 214.223125 527.42625 214 528 C208.06371358 527.465801 203.08331437 526.2138435 197.5625 524 C196.78608154 523.69167236 196.00966309 523.38334473 195.2097168 523.06567383 C171.86346197 513.54811229 151.20323668 498.99249266 132.94140625 481.75390625 C130.56314614 479.50950408 128.12218085 477.36225895 125.625 475.25 C121.67473611 471.81713034 118.36295412 467.99936974 115 464 C114.18789062 463.07574219 113.37578125 462.15148437 112.5390625 461.19921875 C100.2933281 447.18941977 89.33677501 431.67355003 81 415 C69.12 415 57.24 415 45 415 C44.77383366 427.37860559 44.59048133 439.75583346 44.48187828 452.13603973 C44.42974657 457.88509537 44.35907289 463.63266121 44.24560547 469.38085938 C44.13673225 474.93122424 44.07711359 480.48015896 44.05122757 486.0315094 C44.03278791 488.14635228 43.99677627 490.26111914 43.94269943 492.37535095 C43.23323798 503.7602081 43.23323798 503.7602081 47.13458252 514.00944519 C49.67638624 516.07491364 52.08065595 517.53562019 55 519 C56.51544201 520.0576381 58.01823549 521.13395487 59.5 522.23828125 C60.99617423 523.26859862 62.49627958 524.29322766 64 525.3125 C65.2209436 526.14261597 65.2209436 526.14261597 66.46655273 526.98950195 C74.80801503 532.61461508 83.32845672 537.90124018 92 543 C93.05574219 543.62769287 93.05574219 543.62769287 94.1328125 544.26806641 C118.88374493 558.89828777 145.99655364 569.57251535 174 576 C174.90097412 576.23485107 175.80194824 576.46970215 176.73022461 576.71166992 C220.34814631 588.06900152 273.06315104 584.29799485 314.8359375 567.890625 C319.27932687 566.63472762 323.36379255 567.2373968 327.90917969 567.68945312 C336.00130368 568.40041023 344.1765611 568.14684962 352.29223633 568.13037109 C355.42729542 568.12501743 358.56221091 568.13034021 361.69726562 568.13671875 C376.75257652 568.14380736 391.28709393 567.62626498 406.125 564.8125 C407.29442139 564.59110352 408.46384277 564.36970703 409.66870117 564.14160156 C448.22964492 556.57763284 484.21292981 539.25461365 512.37255859 511.59228516 C514.13335149 509.86952919 515.9197434 508.17569954 517.70703125 506.48046875 C542.14047561 483.02498309 560.08869062 451.95454891 571 420 C571.268125 419.236875 571.53625 418.47375 571.8125 417.6875 C572.57371298 415.46729547 573.29358189 413.23823 574 411 C574.30679688 410.03835938 574.61359375 409.07671875 574.9296875 408.0859375 C575.9823521 404.73209912 576.99894269 401.36959667 578 398 C578.33128906 396.89140625 578.66257812 395.7828125 579.00390625 394.640625 C581.96749871 384.18088689 583.78292545 373.58039255 585.52880859 362.8605957 C585.84975639 360.91212663 586.1812403 358.96537053 586.52197266 357.02026367 C591.72345459 327.09117855 592.25663169 294.23450733 588.2734375 264.09814453 C588.00593048 262.04550586 587.77841007 259.99223631 587.5625 257.93359375 C584.40522855 229.54634064 577.29462116 201.23778566 566 175 C565.52046875 173.82050781 565.0409375 172.64101562 564.546875 171.42578125 C557.55508426 154.46502205 548.21239484 138.51040113 537 124 C536.30366455 123.08371826 536.30366455 123.08371826 535.59326172 122.14892578 C512.83129219 92.36585123 484.31931317 70.84926145 450 56 C449.34676758 55.71431152 448.69353516 55.42862305 448.02050781 55.13427734 C430.16551181 47.47223948 410.95429635 44.12765728 391.81176758 41.53417969 C383.00901318 40.28617495 374.75917354 38.15809329 366.26953125 35.57421875 C279.21000205 9.1135026 161.69546332 6.03505487 78 80 Z " fill="#000000" transform="translate(0,0)"/>
<path d="M0 0 C25.9308492 3.70440703 49.36520693 20.35546164 68 38 C68.81082031 38.75796875 69.62164062 39.5159375 70.45703125 40.296875 C82.28688769 51.69824845 91.49319039 65.01428113 100 79 C100.42667969 79.7007666 100.85335937 80.4015332 101.29296875 81.12353516 C127.92190758 125.4812021 140.1140949 182.10794357 140.16796875 233.45703125 C140.17129715 234.60249924 140.17462555 235.74796722 140.17805481 236.92814636 C140.18308153 239.33905644 140.18546446 241.74997336 140.18530273 244.16088867 C140.18747177 247.76558562 140.2056259 251.36996703 140.22460938 254.97460938 C140.27273894 274.54380347 139.23056339 293.95233547 136.25 313.3125 C136.08008545 314.42238281 135.9101709 315.53226562 135.73510742 316.67578125 C129.14552291 358.12102993 115.77346282 400.60055655 91 435 C90.31550781 435.969375 89.63101563 436.93875 88.92578125 437.9375 C83.57865984 445.31019164 77.67118211 451.98519428 71.37988281 458.54833984 C70.18893875 459.80123323 69.02532281 461.07999945 67.8671875 462.36328125 C53.87257107 477.37319338 34.61269798 487.91594132 16 496 C15.18402344 496.36867188 14.36804688 496.73734375 13.52734375 497.1171875 C2.42301715 501.90001932 -10.0340545 504.49494334 -22 506 C-22.69633545 506.08902588 -23.3926709 506.17805176 -24.11010742 506.26977539 C-33.61249413 507.3167814 -43.1425551 507.10959823 -52.6875 507.0625 C-54.4680977 507.05747418 -56.24869677 507.05291319 -58.02929688 507.04882812 C-62.35289909 507.03791 -66.67643403 507.02070521 -71 507 C-67.98182828 503.74596205 -64.4596185 502.12705734 -60.5 500.25 C-22.73995016 481.77490859 7.88799784 449.78980425 22 410 C23.4649877 405.69690082 24.85204987 401.39873618 26 397 C26.17950195 396.32622314 26.35900391 395.65244629 26.54394531 394.95825195 C28.26295338 387.6631542 28.304671 380.4189265 28.26074219 372.97045898 C28.25010467 370.8335271 28.26064608 368.69745193 28.2734375 366.56054688 C28.288301 353.82821694 27.20490201 341.34169014 23.375 329.125 C23.11412598 328.28477295 22.85325195 327.4445459 22.58447266 326.57885742 C15.73691067 305.32096386 3.77588719 287.689739 -12 272 C-13.28777344 270.71222656 -13.28777344 270.71222656 -14.6015625 269.3984375 C-47.38624378 238.19851422 -93.11786626 222.4582917 -134.92236328 207.76513672 C-137 207 -137 207 -139 206 C-141.30869868 190.73693651 -133.46529598 177.23555386 -125 165 C-124.34257812 163.69675781 -124.34257812 163.69675781 -123.671875 162.3671875 C-121.43981921 159.20684683 -118.6129084 157.83707416 -115.25 156.125 C-101.4182892 148.55667209 -96.04110759 137.5631997 -91 123 C-90.67 122.34 -90.34 121.68 -90 121 C-90.17015625 120.46117187 -90.3403125 119.92234375 -90.515625 119.3671875 C-91.23716004 115.84097595 -90.42408161 112.6045192 -89.75 109.125 C-89.54020508 108.00629517 -89.54020508 108.00629517 -89.32617188 106.86499023 C-89.035045 105.32857796 -88.73944637 103.79300648 -88.43945312 102.25830078 C-88.02358336 100.12119225 -87.62773549 97.98118702 -87.234375 95.83984375 C-86.99203125 94.59332031 -86.7496875 93.34679687 -86.5 92.0625 C-86.2834375 90.93972656 -86.066875 89.81695312 -85.84375 88.66015625 C-85 86 -85 86 -82 84 C-81.195625 83.175 -80.39125 82.35 -79.5625 81.5 C-77.35783261 79.34910498 -75.80436523 78.14251917 -73 77 C-73.495 78.98 -73.495 78.98 -74 81 C-73.34 79.35 -72.68 77.7 -72 76 C-72.639375 76.185625 -73.27875 76.37125 -73.9375 76.5625 C-74.618125 76.706875 -75.29875 76.85125 -76 77 C-76.33 76.67 -76.66 76.34 -77 76 C-78.98 78.31 -80.96 80.62 -83 83 C-83.33 82.34 -83.66 81.68 -84 81 C-85.32 81 -86.64 81 -88 81 C-87.65195312 81.53109375 -87.30390625 82.0621875 -86.9453125 82.609375 C-85.67606243 85.81921401 -86.217336 87.8886062 -86.875 91.25 C-87.07867187 92.32765625 -87.28234375 93.4053125 -87.4921875 94.515625 C-87.65976562 95.33546875 -87.82734375 96.1553125 -88 97 C-88.721875 96.2575 -89.44375 95.515 -90.1875 94.75 C-92.68592573 92.30709485 -95.23643202 90.1318953 -98 88 C-97.7452486 89.31571603 -97.47065859 90.62760376 -97.1875 91.9375 C-97.03667969 92.66839844 -96.88585937 93.39929688 -96.73046875 94.15234375 C-96.48941406 94.76207031 -96.24835938 95.37179688 -96 96 C-95.01 96.33 -94.02 96.66 -93 97 C-91.68964993 100.17242648 -91 102.55881664 -91 106 C-90.97679687 106.64195312 -90.95359375 107.28390625 -90.9296875 107.9453125 C-90.59276879 121.37392959 -90.59276879 121.37392959 -94.890625 126.0625 C-96.44704825 127.4177529 -98.02905297 128.74407725 -99.6328125 130.04296875 C-105.6952871 135.05501458 -110.36945148 141.64268119 -115.203125 147.80078125 C-116.72034365 149.65772495 -118.26695689 151.34719037 -120 153 C-121.6438397 151.3561603 -121.12997064 149.45621609 -121.1328125 147.1953125 C-121.13410156 146.21949219 -121.13539063 145.24367187 -121.13671875 144.23828125 C-121.13285156 143.21089844 -121.12898438 142.18351563 -121.125 141.125 C-121.13080078 139.59552734 -121.13080078 139.59552734 -121.13671875 138.03515625 C-121.13542969 137.05675781 -121.13414062 136.07835937 -121.1328125 135.0703125 C-121.13168457 134.17070801 -121.13055664 133.27110352 -121.12939453 132.34423828 C-121 130 -121 130 -120 127 C-117.9375 126.3125 -117.9375 126.3125 -116 126 C-116 125.01 -116 124.02 -116 123 C-115.34 122.01 -114.68 121.02 -114 120 C-115.98 121.65 -117.96 123.3 -120 125 C-118.7171861 119.98536384 -116.78152367 117.48298233 -113 114 C-113 113.67 -113 113.34 -113 113 C-114.485 113.495 -114.485 113.495 -116 114 C-116.33 112.68 -116.66 111.36 -117 110 C-118.485 110.495 -118.485 110.495 -120 111 C-120.33 112.65 -120.66 114.3 -121 116 C-121.928125 115.01 -121.928125 115.01 -122.875 114 C-124.75637427 111.7715451 -124.75637427 111.7715451 -127 112 C-127 112.66 -127 113.32 -127 114 C-126.01 114 -125.02 114 -124 114 C-122.14223235 117.13498292 -121.79859524 119.37471432 -122 123 C-122.66 123 -123.32 123 -124 123 C-123.34 123.66 -122.68 124.32 -122 125 C-121.68595313 129.23963281 -121.67382015 132.36534398 -124 136 C-125.98 134.02 -127.96 132.04 -130 130 C-129.67 132.97 -129.34 135.94 -129 139 C-128.34 138.67 -127.68 138.34 -127 138 C-127.99 135.525 -127.99 135.525 -129 133 C-124.27272727 136.27272727 -124.27272727 136.27272727 -123.0625 139.5 C-122.99285015 142.28599403 -123.53014425 143.66552322 -125 146 C-124.34 146 -123.68 146 -123 146 C-122.42340072 157.91638507 -126.59706109 166.77379863 -132.1875 177.125 C-133.02571289 178.7028125 -133.02571289 178.7028125 -133.88085938 180.3125 C-135.24597112 182.87937679 -136.61908014 185.44160365 -138 188 C-138.33 188 -138.66 188 -139 188 C-139 129.92 -139 71.84 -139 12 C-130.20523859 12.67652011 -123.66910646 13.22796869 -115.6875 16.0625 C-114.79015137 16.37413086 -113.89280273 16.68576172 -112.96826172 17.00683594 C-89.23684598 25.48987802 -66.92046066 40.55929048 -53 62 C-53 62.66 -53 63.32 -53 64 C-52.34 64.33 -51.68 64.66 -51 65 C-51 65.99 -51 66.98 -51 68 C-49.515 68.495 -49.515 68.495 -48 69 C-48 70.32 -48 71.64 -48 73 C-46.515 73.495 -46.515 73.495 -45 74 C-42.9804127 77.26063141 -41.76205409 80.99752764 -40.375 84.5625 C-39.92898438 85.69816406 -39.48296875 86.83382812 -39.0234375 88.00390625 C-38 91 -38 91 -38 94 C-25.46 94 -12.92 94 0 94 C0 62.98 0 31.96 0 0 Z " fill="#000000" transform="translate(406,54)"/>
<path d="M0 0 C22.62426717 7.54142239 45.77577158 17.70273578 65 32 C65.84046875 32.62003906 66.6809375 33.24007812 67.546875 33.87890625 C77.87730623 41.81922218 86.63290713 50.57412102 93 62 C93.39832031 62.71027344 93.79664063 63.42054688 94.20703125 64.15234375 C101.87797924 78.66106561 103.57329502 96.66818045 99.8125 112.625 C99.25517046 114.4317846 98.65099007 116.22481022 98 118 C97.64808594 118.98871094 97.29617188 119.97742188 96.93359375 120.99609375 C91.22238304 135.79246473 81.47625526 149.18622602 69 159 C68.09378906 159.71929687 67.18757813 160.43859375 66.25390625 161.1796875 C47.2499675 175.85893277 24.22801762 186 0 186 C0 124.62 0 63.24 0 0 Z " fill="#000000" transform="translate(267,348)"/>
<path d="M0 0 C12.32414401 12.32414401 13.83679076 38.10079507 14.57202148 54.4675293 C14.61307479 55.36384662 14.65412809 56.26016394 14.69642544 57.18364239 C15.1813403 68.8962732 15.12427481 80.61169664 15.09765625 92.33203125 C15.09578565 94.79066438 15.09436479 97.24929788 15.09336853 99.70793152 C15.08959387 106.10441155 15.07980823 112.500868 15.06866455 118.89733887 C15.05834033 125.45434246 15.05384759 132.01134995 15.04882812 138.56835938 C15.03818018 151.37891617 15.02136517 164.18945682 15 177 C-15.15831015 172.15746751 -49.68150206 154.85185379 -72 134 C-72.77859375 133.30132812 -73.5571875 132.60265625 -74.359375 131.8828125 C-83.41566147 123.40531126 -90.27406326 111.07600189 -91.17700195 98.54321289 C-91.71529788 75.962664 -87.3191557 56.35296224 -72 39 C-71.34644531 38.20464844 -70.69289062 37.40929687 -70.01953125 36.58984375 C-56.31824666 20.44279251 -22.83941215 -3.51072138 0 0 Z " fill="#010101" transform="translate(208,67)"/>
<path d="M0 0 C8.79476141 0.67652011 15.33089354 1.22796869 23.3125 4.0625 C24.20984863 4.37413086 25.10719727 4.68576172 26.03173828 5.00683594 C49.76315402 13.48987802 72.07953934 28.55929048 86 50 C86 50.66 86 51.32 86 52 C86.66 52.33 87.32 52.66 88 53 C88 53.99 88 54.98 88 56 C89.485 56.495 89.485 56.495 91 57 C91 58.32 91 59.64 91 61 C92.485 61.495 92.485 61.495 94 62 C95.9837492 65.15066049 96.80243665 68.40730996 98 72 C92.39 72 86.78 72 81 72 C79.02 75.63 77.04 79.26 75 83 C76.98 82.67 78.96 82.34 81 82 C83.67810075 81.88803927 86.31732686 81.95374701 89 82 C86.36285735 84.9301585 83.41767633 87.0470421 80 89 C77.625 88.75 77.625 88.75 76 88 C76.33 87.67 76.66 87.34 77 87 C76.01 87 75.02 87 74 87 C74 87.66 74 88.32 74 89 C73.319375 89.165 72.63875 89.33 71.9375 89.5 C68.34014072 91.33694942 66.53015305 93.63244855 63.9609375 96.6953125 C61.83904408 99.1891713 59.6447067 101.57730666 57.375 103.9375 C56.30378906 105.06478516 56.30378906 105.06478516 55.2109375 106.21484375 C52.75676843 108.19639015 51.10061002 108.657301 48 109 C48.82434761 99.72608936 49.86810055 90.58860529 51.9375 81.5 C52.09508789 80.7769165 52.25267578 80.05383301 52.41503906 79.30883789 C53.63198487 74.24534342 53.63198487 74.24534342 57 72 C57.804375 71.175 58.60875 70.35 59.4375 69.5 C61.64216739 67.34910498 63.19563477 66.14251917 66 65 C65.505 66.98 65.505 66.98 65 69 C65.66 67.35 66.32 65.7 67 64 C66.360625 64.185625 65.72125 64.37125 65.0625 64.5625 C64.381875 64.706875 63.70125 64.85125 63 65 C62.67 64.67 62.34 64.34 62 64 C60.02 66.31 58.04 68.62 56 71 C55.67 70.34 55.34 69.68 55 69 C53.68 69 52.36 69 51 69 C51.34804688 69.53109375 51.69609375 70.0621875 52.0546875 70.609375 C53.32393757 73.81921401 52.782664 75.8886062 52.125 79.25 C51.92132813 80.32765625 51.71765625 81.4053125 51.5078125 82.515625 C51.34023438 83.33546875 51.17265625 84.1553125 51 85 C50.278125 84.2575 49.55625 83.515 48.8125 82.75 C46.31407427 80.30709485 43.76356798 78.1318953 41 76 C41.2547514 77.31571603 41.52934141 78.62760376 41.8125 79.9375 C41.96332031 80.66839844 42.11414063 81.39929688 42.26953125 82.15234375 C42.51058594 82.76207031 42.75164062 83.37179688 43 84 C43.99 84.33 44.98 84.66 46 85 C47.31035007 88.17242648 48 90.55881664 48 94 C48.02320313 94.64195312 48.04640625 95.28390625 48.0703125 95.9453125 C48.40723121 109.37392959 48.40723121 109.37392959 44.109375 114.0625 C42.55295175 115.4177529 40.97094703 116.74407725 39.3671875 118.04296875 C33.3047129 123.05501458 28.63054852 129.64268119 23.796875 135.80078125 C22.27965635 137.65772495 20.73304311 139.34719037 19 141 C17.3561603 139.3561603 17.87002936 137.45621609 17.8671875 135.1953125 C17.86589844 134.21949219 17.86460937 133.24367187 17.86328125 132.23828125 C17.86714844 131.21089844 17.87101562 130.18351563 17.875 129.125 C17.86919922 127.59552734 17.86919922 127.59552734 17.86328125 126.03515625 C17.86457031 125.05675781 17.86585938 124.07835937 17.8671875 123.0703125 C17.86831543 122.17070801 17.86944336 121.27110352 17.87060547 120.34423828 C18 118 18 118 19 115 C21.0625 114.3125 21.0625 114.3125 23 114 C23 113.01 23 112.02 23 111 C23.66 110.01 24.32 109.02 25 108 C23.02 109.65 21.04 111.3 19 113 C20.2828139 107.98536384 22.21847633 105.48298233 26 102 C26 101.67 26 101.34 26 101 C24.515 101.495 24.515 101.495 23 102 C22.67 100.68 22.34 99.36 22 98 C20.515 98.495 20.515 98.495 19 99 C18.67 100.65 18.34 102.3 18 104 C17.071875 103.01 17.071875 103.01 16.125 102 C14.24362573 99.7715451 14.24362573 99.7715451 12 100 C12 100.66 12 101.32 12 102 C12.99 102 13.98 102 15 102 C16.85776765 105.13498292 17.20140476 107.37471432 17 111 C16.34 111 15.68 111 15 111 C15.66 111.66 16.32 112.32 17 113 C17.31404687 117.23963281 17.32617985 120.36534398 15 124 C13.02 122.02 11.04 120.04 9 118 C9.33 120.97 9.66 123.94 10 127 C10.99 126.505 10.99 126.505 12 126 C11.34 124.35 10.68 122.7 10 121 C14.72727273 124.27272727 14.72727273 124.27272727 15.9375 127.5 C16.00714985 130.28599403 15.46985575 131.66552322 14 134 C14.66 134 15.32 134 16 134 C16.57659928 145.91638507 12.40293891 154.77379863 6.8125 165.125 C5.97428711 166.7028125 5.97428711 166.7028125 5.11914062 168.3125 C3.75402888 170.87937679 2.38091986 173.44160365 1 176 C0.67 176 0.34 176 0 176 C0 117.92 0 59.84 0 0 Z " fill="#020202" transform="translate(267,66)"/>
<path d="M0 0 C2.375 0.75 2.375 0.75 3.375 1.75 C4.53775654 8.93259739 2.86188587 14.76454301 0.3125 21.375 C-2.79580529 29.68212828 -3.67710334 34.05587663 -0.03515625 42.38671875 C1.93915708 46.59828203 4.12375768 50.68110282 6.375 54.75 C6.99761719 55.88179688 7.62023437 57.01359375 8.26171875 58.1796875 C13.00671279 66.31680516 18.76819707 73.24626173 25.02539062 80.23291016 C26.78247404 82.20803974 28.48049316 84.23157975 30.1875 86.25 C33.29515009 89.80160011 36.72164209 92.76766702 40.375 95.75 C40.21064453 94.36167969 40.21064453 94.36167969 40.04296875 92.9453125 C39.48388975 88.21390332 38.92922504 83.48197989 38.375 78.75 C38.1903418 77.17605469 38.1903418 77.17605469 38.00195312 75.5703125 C37.60390555 72.17205558 37.20800253 68.77355399 36.8125 65.375 C36.68576904 64.29492676 36.55903809 63.21485352 36.4284668 62.10205078 C35.6422575 55.32560131 34.95762416 48.54700004 34.375 41.75 C32.725 41.75 31.075 41.75 29.375 41.75 C29.045 41.09 28.715 40.43 28.375 39.75 C29.365 39.42 30.355 39.09 31.375 38.75 C30.8696875 38.35167969 30.364375 37.95335937 29.84375 37.54296875 C29.1940625 37.01316406 28.544375 36.48335938 27.875 35.9375 C27.2253125 35.41542969 26.575625 34.89335937 25.90625 34.35546875 C24.375 32.75 24.375 32.75 24.375 29.75 C28.19184226 31.30500981 30.56695732 33.78595495 33.375 36.75 C30.79335012 29.3337051 30.79335012 29.3337051 27.5625 22.1875 C26.9746875 20.9809375 26.9746875 20.9809375 26.375 19.75 C26.705 19.09 27.035 18.43 27.375 17.75 C27.87 19.235 27.87 19.235 28.375 20.75 C29.035 20.75 29.695 20.75 30.375 20.75 C30.87 19.265 30.87 19.265 31.375 17.75 C32.695 23.03 34.015 28.31 35.375 33.75 C36.035 30.12 36.695 26.49 37.375 22.75 C38.035 22.75 38.695 22.75 39.375 22.75 C39.045 27.04 38.715 31.33 38.375 35.75 C39.035 36.08 39.695 36.41 40.375 36.75 C39.88 37.430625 39.385 38.11125 38.875 38.8125 C35.72344691 44.98429146 37.75167646 51.35816358 39.375 57.75 C39.91898437 57.00234375 40.46296875 56.2546875 41.0234375 55.484375 C43.48675043 52.62005764 45.78600598 50.9578508 49 49 C49.96164063 48.40703125 50.92328125 47.8140625 51.9140625 47.203125 C53.37531784 46.34028852 54.85717156 45.50891422 56.375 44.75 C55.74046178 49.49524234 53.83015779 53.28734202 51.6875 57.5 C51.33244385 58.21953857 50.9773877 58.93907715 50.61157227 59.68041992 C48.66311025 63.54717929 46.64858939 66.76704401 43.8125 70.0625 C39.19883355 76.48912481 41.196641 86.35466339 42.375 93.75 C43.566229 98.86672973 45.65720981 101.51604503 49.3125 105.25 C57.84911433 114.22134932 65.2493797 123.96343542 72.3125 134.125 C72.76109375 134.76663086 73.2096875 135.40826172 73.671875 136.06933594 C76.67277729 140.4596288 79.08199904 144.95119057 81.375 149.75 C82.45370346 135.74611759 82.4850174 121.7899129 82.375 107.75 C81.82650391 107.49025391 81.27800781 107.23050781 80.71289062 106.96289062 C79.99294922 106.61419922 79.27300781 106.26550781 78.53125 105.90625 C77.81775391 105.56400391 77.10425781 105.22175781 76.36914062 104.86914062 C73.56498471 103.29540768 72.01913397 101.49022328 70.375 98.75 C70.375 97.43 70.375 96.11 70.375 94.75 C71.035 94.75 71.695 94.75 72.375 94.75 C71.715 91.45 71.055 88.15 70.375 84.75 C74.375 84.75 74.375 84.75 76.625 86.75 C77.2025 87.41 77.78 88.07 78.375 88.75 C79.035 86.44 79.695 84.13 80.375 81.75 C82.025 82.08 83.675 82.41 85.375 82.75 C86.365 86.215 86.365 86.215 87.375 89.75 C88.695 87.77 90.015 85.79 91.375 83.75 C93.025 84.08 94.675 84.41 96.375 84.75 C97.24448243 91.53196296 93.81571626 96.35934587 90 101.66015625 C88.6875 103.3125 88.6875 103.3125 86.375 105.75 C85.715 105.75 85.055 105.75 84.375 105.75 C85.365 113.67 85.365 113.67 86.375 121.75 C88.025 119.77 89.675 117.79 91.375 115.75 C93.61328125 113.8515625 93.61328125 113.8515625 95.6875 112.375 C96.38488281 111.87226563 97.08226562 111.36953125 97.80078125 110.8515625 C98.32027344 110.48804688 98.83976563 110.12453125 99.375 109.75 C97.95899333 118.24604004 95.37581792 127.7937306 88.203125 133.09375 C85.00322689 135.56254824 85.00322689 135.56254824 84.71875 139.640625 C84.73985933 141.09452986 84.79277804 142.54826845 84.875 144 C84.89046875 145.06927734 84.89046875 145.06927734 84.90625 146.16015625 C85.20207835 156.42170225 88.42831064 164.67220355 92.8125 173.875 C93.79102257 175.96062892 94.76890409 178.04655874 95.74609375 180.1328125 C96.2035498 181.10508789 96.66100586 182.07736328 97.13232422 183.07910156 C99.06922791 187.24211263 100.92166735 191.39000205 102.375 195.75 C101.385 195.75 100.395 195.75 99.375 195.75 C99.07843506 195.06599121 98.78187012 194.38198242 98.47631836 193.67724609 C95.59715397 187.0496515 92.68760307 180.4363242 89.74658203 173.8359375 C88.92841184 171.99512738 88.11510171 170.15212649 87.31201172 168.3046875 C82.77821019 157.90833745 77.94465903 152.59109865 67.9375 147.4375 C55.18176331 140.61362688 48.57166757 128.3469134 43.453125 115.4140625 C42.375 111.75 42.375 111.75 42.09423828 108.98388672 C41.18313456 100.24311539 38.22384532 96.36843634 31.75 90.625 C30.10473434 89.07776118 28.46275797 87.52701665 26.82421875 85.97265625 C26.0461084 85.24449707 25.26799805 84.51633789 24.46630859 83.76611328 C20.65428586 80.09115604 17.47237185 76.04055467 14.375 71.75 C13.85550781 71.06292969 13.33601563 70.37585938 12.80078125 69.66796875 C9.375 65.05958904 9.375 65.05958904 9.375 62.75 C8.7459375 62.86859375 8.116875 62.9871875 7.46875 63.109375 C-3.37480072 64.74243987 -8.97876986 59.69744299 -17.5 53.45703125 C-18.20125 52.89371094 -18.9025 52.33039063 -19.625 51.75 C-19.625 51.42 -19.625 51.09 -19.625 50.75 C-14.1228184 50.51863363 -9.48646222 51.3149654 -4.1875 52.75 C-3.09018555 53.03617187 -3.09018555 53.03617187 -1.97070312 53.328125 C-0.18680334 53.79450403 1.59439845 54.27118278 3.375 54.75 C2.88128906 53.70199219 2.38757813 52.65398437 1.87890625 51.57421875 C1.23168373 50.19535338 0.58455311 48.81644488 -0.0625 47.4375 C-0.38798828 46.74720703 -0.71347656 46.05691406 -1.04882812 45.34570312 C-2.37987485 42.50522197 -3.63207934 39.72876197 -4.625 36.75 C-5.18372803 36.73541748 -5.74245605 36.72083496 -6.31811523 36.70581055 C-8.90020052 36.63039202 -11.48112184 36.53405119 -14.0625 36.4375 C-14.94099609 36.41494141 -15.81949219 36.39238281 -16.72460938 36.36914062 C-23.39989633 36.09818802 -30.6254707 35.48486495 -35.75 30.8125 C-36.81967916 28.29111342 -36.62966664 27.2616666 -35.625 24.75 C-35.295 24.09 -34.965 23.43 -34.625 22.75 C-27.64830843 22.35674181 -22.10843811 23.11903961 -15.625 25.75 C-16.22828125 25.03714844 -16.8315625 24.32429688 -17.453125 23.58984375 C-29.32780643 9.35937875 -29.32780643 9.35937875 -28.625 0.75 C-23.19092806 1.1291213 -21.29766204 2.87881569 -17.625 6.75 C-14.75357045 6.91720492 -14.75357045 6.91720492 -12.6875 6.0625 C-10.625 5.75 -10.625 5.75 -8.375 7.1875 C-7.7975 7.703125 -7.22 8.21875 -6.625 8.75 C-6.521875 7.821875 -6.41875 6.89375 -6.3125 5.9375 C-5.625 2.75 -5.625 2.75 -4.375 0.8125 C-2.625 -0.25 -2.625 -0.25 0 0 Z " fill="#CDCDCD" transform="translate(117.625,315.25)"/>
<path d="M0 0 C2.475 0.495 2.475 0.495 5 1 C5.66 3.31 6.32 5.62 7 8 C8.32 6.02 9.64 4.04 11 2 C13.475 2.495 13.475 2.495 16 3 C16.86948243 9.78196296 13.44071626 14.60934587 9.625 19.91015625 C8.3125 21.5625 8.3125 21.5625 6 24 C5.34 24 4.68 24 4 24 C4.66 29.28 5.32 34.56 6 40 C7.65 38.02 9.3 36.04 11 34 C13.23828125 32.1015625 13.23828125 32.1015625 15.3125 30.625 C16.00988281 30.12226563 16.70726562 29.61953125 17.42578125 29.1015625 C17.94527344 28.73804688 18.46476562 28.37453125 19 28 C17.58399333 36.49604004 15.00081792 46.0437306 7.828125 51.34375 C4.62822689 53.81254824 4.62822689 53.81254824 4.34375 57.890625 C4.36485933 59.34452986 4.41777804 60.79826845 4.5 62.25 C4.5103125 62.96285156 4.520625 63.67570312 4.53125 64.41015625 C4.82707835 74.67170225 8.05331064 82.92220355 12.4375 92.125 C13.41602257 94.21062892 14.39390409 96.29655874 15.37109375 98.3828125 C15.8285498 99.35508789 16.28600586 100.32736328 16.75732422 101.32910156 C18.69422791 105.49211263 20.54666735 109.64000205 22 114 C21.01 114 20.02 114 19 114 C18.70343506 113.31599121 18.40687012 112.63198242 18.10131836 111.92724609 C15.22215397 105.2996515 12.31260307 98.6863242 9.37158203 92.0859375 C8.55341184 90.24512738 7.74010171 88.40212649 6.93701172 86.5546875 C2.36508621 76.07091629 -2.54065259 70.84078797 -12.5625 65.5625 C-17.50797872 62.93765892 -21.55491775 59.42060299 -25 55 C-25.37555675 53.67793873 -25.71148251 52.34374348 -26 51 C-26.70923124 49.84886315 -27.46364774 48.72489778 -28.25 47.625 C-33.31968317 39.75520113 -36.43972132 30.33797804 -37 21 C-33.94837547 22.33819387 -32.1151434 23.71380525 -30.00390625 26.28125 C-29.45154297 26.94946777 -28.89917969 27.61768555 -28.33007812 28.30615234 C-27.74677734 29.03012207 -27.16347656 29.7540918 -26.5625 30.5 C-25.95212891 31.25104004 -25.34175781 32.00208008 -24.71289062 32.77587891 C-15.55439144 44.1579787 -6.37432009 55.78565608 0 69 C0.66 69 1.32 69 2 69 C2 54.81 2 40.62 2 26 C-0.64 24.68 -3.28 23.36 -6 22 C-8.5 19.5 -8.5 19.5 -10 17 C-10 15.68 -10 14.36 -10 13 C-9.34 13 -8.68 13 -8 13 C-8.66 9.7 -9.32 6.4 -10 3 C-6 3 -6 3 -3.75 5 C-3.1725 5.66 -2.595 6.32 -2 7 C-1.34 4.69 -0.68 2.38 0 0 Z " fill="#DADADA" transform="translate(198,397)"/>
<path d="M0 0 C1.65 0 3.3 0 5 0 C3.68 0.33 2.36 0.66 1 1 C1.33 58.42 1.66 115.84 2 175 C12.13530687 157.36025503 12.13530687 157.36025503 16.625 139 C16.69976562 138.236875 16.77453125 137.47375 16.8515625 136.6875 C16.90054687 136.130625 16.94953125 135.57375 17 135 C16.34 135 15.68 135 15 135 C14.875 130.25 14.875 130.25 16 128 C15.01 127.01 14.02 126.02 13 125 C13.33 125.99 13.66 126.98 14 128 C13.01 128 12.02 128 11 128 C9.41293158 123.8922935 8.89808099 122.40767604 10 118 C11.98 119.98 13.96 121.96 16 124 C17.41933513 119.74199462 17.72651677 115.77088462 16 111.5625 C15.67 111.046875 15.34 110.53125 15 110 C15.66 110.33 16.32 110.66 17 111 C16.55296014 106.52116304 16.55296014 106.52116304 14 103 C14 104.65 14 106.3 14 108 C12 106 12 106 11.875 103.375 C11.91625 102.59125 11.9575 101.8075 12 101 C13.32 101 14.64 101 16 101 C16.66 101.99 17.32 102.98 18 104 C18.66 102.35 19.32 100.7 20 99 C20.99 99 21.98 99 23 99 C23.33 100.32 23.66 101.64 24 103 C26.475 102.01 26.475 102.01 29 101 C28.67 101.99 28.34 102.98 28 104 C27.38125 104.2475 26.7625 104.495 26.125 104.75 C22.81231437 106.69863861 22.31381368 109.45270306 21 113 C22.98 111.35 24.96 109.7 27 108 C27.66 108.66 28.32 109.32 29 110 C28.175 110.433125 27.35 110.86625 26.5 111.3125 C25.675 111.869375 24.85 112.42625 24 113 C24 113.99 24 114.98 24 116 C22.68 116 21.36 116 20 116 C20 124.25 20 132.5 20 141 C21.32 139.35 22.64 137.7 24 136 C24.90969793 134.97099743 25.8313899 133.95235754 26.76953125 132.94921875 C27.26267822 132.41917236 27.7558252 131.88912598 28.26391602 131.34301758 C29.03046509 130.52353638 29.03046509 130.52353638 29.8125 129.6875 C33.83737727 125.3651185 37.79373573 121.00846161 41.59765625 116.48828125 C43 115 43 115 46 113 C48.73153917 106.09081268 48.80349756 98.11299438 47 91 C47 90.01 47 89.02 47 88 C46.67 87.34 46.34 86.68 46 86 C45.01 86.495 45.01 86.495 44 87 C43.01 83.37 42.02 79.74 41 76 C49.875 81.75 49.875 81.75 51 84 C51.36504603 82.41913952 51.71660506 80.83516093 52.0625 79.25 C52.25972656 78.36828125 52.45695312 77.4865625 52.66015625 76.578125 C52.99825872 74.01320972 52.81158635 72.42908361 52 70 C53.65 70.33 55.3 70.66 57 71 C57.78375 70.05125 58.5675 69.1025 59.375 68.125 C60.86364904 66.32295116 62.34378848 64.65621152 64 63 C64.33 63.66 64.66 64.32 65 65 C65.99 65 66.98 65 68 65 C67.67 66.65 67.34 68.3 67 70 C66.01 70 65.02 70 64 70 C64.99 68.515 64.99 68.515 66 67 C63.69 68.65 61.38 70.3 59 72 C59.33 72.66 59.66 73.32 60 74 C57.525 74.495 57.525 74.495 55 75 C54.96261719 75.55945313 54.92523438 76.11890625 54.88671875 76.6953125 C54.35850885 83.13740182 53.11260924 89.26865929 51.69921875 95.5703125 C50.79011915 100.02947143 50.303142 104.4633231 50 109 C50.99 109.495 50.99 109.495 52 110 C51.54367187 110.39058594 51.08734375 110.78117187 50.6171875 111.18359375 C48.66246244 113.37911827 48.03224214 115.2725297 47.125 118.0625 C42.61384189 130.9176047 37.69856307 139.31347774 25.125 145.375 C16.436141 149.80223017 13.02760367 157.25186969 9.03564453 165.80810547 C8.11051753 167.76609468 7.12537207 169.66529648 6.08984375 171.56640625 C2.05895624 179.33277343 1.02613009 186.28561537 1 195 C0.67 195 0.34 195 0 195 C0 130.65 0 66.3 0 0 Z " fill="#BDBDBD" transform="translate(266,65)"/>
<path d="M0 0 C2.375 0.75 2.375 0.75 3.375 1.75 C4.89541238 11.14191444 1.47719109 19.36176252 -1.90527344 27.92480469 C-2.52832192 29.50482859 -3.11522577 31.09901543 -3.6953125 32.6953125 C-4.625 34.75 -4.625 34.75 -6.625 35.75 C-25.47542876 36.75329815 -25.47542876 36.75329815 -33.625 32.75 C-35.75 30.8125 -35.75 30.8125 -36.625 28.75 C-36.34830471 26.39809002 -35.68156463 24.86312926 -34.625 22.75 C-27.64830843 22.35674181 -22.10843811 23.11903961 -15.625 25.75 C-16.22828125 25.03714844 -16.8315625 24.32429688 -17.453125 23.58984375 C-29.32780643 9.35937875 -29.32780643 9.35937875 -28.625 0.75 C-23.19092806 1.1291213 -21.29766204 2.87881569 -17.625 6.75 C-14.75357045 6.91720492 -14.75357045 6.91720492 -12.6875 6.0625 C-10.625 5.75 -10.625 5.75 -8.375 7.1875 C-7.7975 7.703125 -7.22 8.21875 -6.625 8.75 C-6.521875 7.821875 -6.41875 6.89375 -6.3125 5.9375 C-5.625 2.75 -5.625 2.75 -4.375 0.8125 C-2.625 -0.25 -2.625 -0.25 0 0 Z " fill="#DCDCDC" transform="translate(117.625,315.25)"/>
<path d="M0 0 C2.47521405 1.63863008 4.87026716 3.35805055 7.26953125 5.10546875 C17.99975709 12.7144811 30.31446754 18.46750841 43.51953125 19.66796875 C44.46119141 19.76464844 44.46119141 19.76464844 45.421875 19.86328125 C63.67481197 20.8829984 80.96788815 9.87535341 95.22973633 -0.20703125 C102.82216991 -5.50322934 110.09797893 -8.65224877 119.51953125 -7.33203125 C125.80828798 -5.45878456 129.77392852 -1.59401986 133.51953125 3.66796875 C136.02325206 8.67541036 135.07885687 15.95891824 133.39453125 21.10546875 C129.03056014 27.0695626 129.03056014 27.0695626 125.51953125 28.66796875 C120.34628601 29.41100939 115.57137938 29.6253033 110.7734375 27.38671875 C107.72656619 25.06328135 106.80542699 23.20465834 106.11328125 19.484375 C105.92631685 14.9894392 106.09640042 13.21044418 108.95703125 9.54296875 C112.42100526 7.15117717 115.42542459 7.42180548 119.46875 7.98046875 C121.88633604 8.79093569 122.98489182 9.64127033 124.51953125 11.66796875 C124.51953125 12.65796875 124.51953125 13.64796875 124.51953125 14.66796875 C123.85953125 14.66796875 123.19953125 14.66796875 122.51953125 14.66796875 C122.51953125 14.00796875 122.51953125 13.34796875 122.51953125 12.66796875 C120.91620334 12.58674951 119.31169099 12.52867741 117.70703125 12.48046875 C116.81371094 12.44566406 115.92039062 12.41085937 115 12.375 C112.4841999 12.46462281 112.4841999 12.46462281 110.71875 13.99609375 C108.85285163 16.59741135 109.13863924 18.55735068 109.51953125 21.66796875 C111.2993753 24.80388445 112.04261332 25.50899611 115.51953125 26.66796875 C120.23305773 27.05432338 122.60785311 27.10692489 126.89453125 25.04296875 C130.87508943 21.44151135 131.39524247 18.40801174 131.76953125 13.16796875 C131.34767653 7.26200263 129.86962333 2.79497919 125.51953125 -1.33203125 C120.23536331 -3.89219013 115.39423437 -4.74484823 109.51953125 -4.33203125 C106.23042629 -3.20278124 106.23042629 -3.20278124 103.01953125 -1.45703125 C102.41987549 -1.14894531 101.82021973 -0.84085938 101.20239258 -0.5234375 C96.63756231 1.89250588 92.43689208 4.71525879 88.20703125 7.66796875 C73.4445752 17.91740877 57.50523578 22.92235635 39.51953125 21.66796875 C34.37463112 20.73356828 29.47359281 19.3193226 24.51953125 17.66796875 C25.50953125 18.65796875 25.50953125 18.65796875 26.51953125 19.66796875 C23.70833821 20.31997145 20.89578094 20.96466996 18.08203125 21.60546875 C17.29892578 21.78787109 16.51582031 21.97027344 15.70898438 22.15820312 C4.10416621 24.78480806 4.10416621 24.78480806 -0.48046875 24.66796875 C-1.47046875 24.00796875 -2.46046875 23.34796875 -3.48046875 22.66796875 C-3.16992475 19.76955805 -2.49178231 18.67980448 -0.44921875 16.54296875 C3.4773319 14.06304203 6.3035991 14.20753222 10.83203125 14.41796875 C11.94288086 14.44503906 11.94288086 14.44503906 13.07617188 14.47265625 C14.89118835 14.51949538 16.70553291 14.59123086 18.51953125 14.66796875 C17.87628906 14.33925781 17.23304688 14.01054688 16.5703125 13.671875 C11.09453389 10.78947513 5.97807273 7.65558762 0.95703125 4.04296875 C-7.17373492 -1.69758832 -13.83953361 -5.38490071 -24 -3.9375 C-28.83136471 -2.7581905 -31.50411856 -0.35976829 -34.85546875 3.16796875 C-37.20577332 8.23016321 -37.30165353 13.17120936 -36.48046875 18.66796875 C-35.53572807 20.366569 -34.54359841 22.04084457 -33.48046875 23.66796875 C-33.48046875 24.32796875 -33.48046875 24.98796875 -33.48046875 25.66796875 C-28.08866332 27.18403196 -22.79662789 27.48827511 -17.48046875 25.60546875 C-15.18155473 23.69843486 -15.18155473 23.69843486 -14.48046875 20.23046875 C-14.27986155 16.79517081 -14.27986155 16.79517081 -15.35546875 14.23046875 C-18.31931091 12.05117305 -20.72517378 12.27204717 -24.32421875 12.33203125 C-26.77160574 12.55872499 -26.77160574 12.55872499 -29.48046875 14.66796875 C-29.29296875 12.29296875 -29.29296875 12.29296875 -28.48046875 9.66796875 C-24.90725221 7.52403883 -21.57655024 7.08281425 -17.48046875 7.66796875 C-14.10546875 9.66796875 -14.10546875 9.66796875 -11.48046875 12.66796875 C-10.49073398 16.65909432 -11.07903913 19.76475211 -12.73046875 23.48046875 C-15.28275329 26.67082443 -17.15977338 28.4637944 -21.28515625 29.1015625 C-25.99451649 29.10755405 -29.61131193 29.04046453 -33.98046875 27.16796875 C-38.11561754 23.03281996 -40.6307659 18.58960362 -40.98046875 12.66796875 C-40.59670452 6.35442814 -37.71370298 1.50270823 -33.10546875 -2.70703125 C-22.15640604 -11.27991439 -10.54744096 -6.56177203 0 0 Z " fill="#C4C4C4" transform="translate(278.48046875,618.33203125)"/>
<path d="M0 0 C69.96 0 139.92 0 212 0 C211.67 1.32 211.34 2.64 211 4 C141.37 4 71.74 4 0 4 C0 2.68 0 1.36 0 0 Z " fill="#FEFEFE" transform="translate(12,630)"/>
<path d="M0 0 C69.96 0 139.92 0 212 0 C211.67 1.32 211.34 2.64 211 4 C141.7 4 72.4 4 1 4 C0.67 2.68 0.34 1.36 0 0 Z " fill="#FEFEFE" transform="translate(428,630)"/>
<path d="M0 0 C14.64985975 -0.73147705 14.64985975 -0.73147705 21 4 C22.64189957 5.08928612 24.28790612 6.17240152 25.9375 7.25 C27.29321645 8.16437303 28.64793888 9.08023053 30 10 C34.187199 8.01658995 38.07566808 6.05923116 41.8125 3.3125 C46.47872682 -0.07280181 49.53872572 -0.11432362 55.1875 -0.0625 C56.45980469 -0.05347656 57.73210937 -0.04445313 59.04296875 -0.03515625 C60.50669922 -0.01775391 60.50669922 -0.01775391 62 0 C62.495 0.99 62.495 0.99 63 2 C62.46632813 2.37769531 61.93265625 2.75539063 61.3828125 3.14453125 C56.65288026 6.63878915 52.76863605 10.2773714 48.9375 14.75 C43.85416662 20.44239637 40.61602391 22.46178048 33.15234375 23.33203125 C25.89520976 23.72654043 20.69495635 22.58965059 15 18 C12.09501564 15.17773714 9.37125692 12.28874597 7 9 C7 8.34 7 7.68 7 7 C6.34 7 5.68 7 5 7 C5 6.34 5 5.68 5 5 C2.525 4.01 2.525 4.01 0 3 C0 2.01 0 1.02 0 0 Z " fill="#080808" transform="translate(295,613)"/>
<path d="M0 0 C0.66 0.66 1.32 1.32 2 2 C2.99 2 3.98 2 5 2 C4.67 3.65 4.34 5.3 4 7 C3.01 7 2.02 7 1 7 C1.66 6.01 2.32 5.02 3 4 C-0.465 6.475 -0.465 6.475 -4 9 C-3.505 9.99 -3.505 9.99 -3 11 C-4.65 11.33 -6.3 11.66 -8 12 C-8.03738281 12.55945313 -8.07476562 13.11890625 -8.11328125 13.6953125 C-8.64149115 20.13740182 -9.88739076 26.26865929 -11.30078125 32.5703125 C-12.20988085 37.02947143 -12.696858 41.4633231 -13 46 C-12.01 46.495 -12.01 46.495 -11 47 C-11.45117188 47.38027344 -11.90234375 47.76054687 -12.3671875 48.15234375 C-14.41545749 50.47012295 -15.13655558 52.63997338 -16.125 55.5625 C-17.96202532 60.92405063 -17.96202532 60.92405063 -19 63 C-19.66 63 -20.32 63 -21 63 C-21.185625 63.66 -21.37125 64.32 -21.5625 65 C-25.21000206 72.61217821 -31.63284041 78.06449331 -39 82 C-41.14453125 82.72265625 -41.14453125 82.72265625 -43 83 C-43.66 82.67 -44.32 82.34 -45 82 C-45 75.07 -45 68.14 -45 61 C-44.67 61 -44.34 61 -44 61 C-43.67 66.61 -43.34 72.22 -43 78 C-41.68 76.35 -40.36 74.7 -39 73 C-38.09030207 71.97099743 -37.1686101 70.95235754 -36.23046875 69.94921875 C-35.73732178 69.41917236 -35.2441748 68.88912598 -34.73608398 68.34301758 C-34.22505127 67.79669678 -33.71401855 67.25037598 -33.1875 66.6875 C-29.16262273 62.3651185 -25.20626427 58.00846161 -21.40234375 53.48828125 C-20 52 -20 52 -17 50 C-14.26846083 43.09081268 -14.19650244 35.11299438 -16 28 C-16 27.01 -16 26.02 -16 25 C-16.33 24.34 -16.66 23.68 -17 23 C-17.66 23.33 -18.32 23.66 -19 24 C-19.99 20.37 -20.98 16.74 -22 13 C-13.125 18.75 -13.125 18.75 -12 21 C-11.63495397 19.41913952 -11.28339494 17.83516093 -10.9375 16.25 C-10.74027344 15.36828125 -10.54304688 14.4865625 -10.33984375 13.578125 C-10.00174128 11.01320972 -10.18841365 9.42908361 -11 7 C-8.525 7.495 -8.525 7.495 -6 8 C-5.195625 7.05125 -4.39125 6.1025 -3.5625 5.125 C-3.11003906 4.59132812 -2.65757812 4.05765625 -2.19140625 3.5078125 C-0.9121848 1.99405921 -0.9121848 1.99405921 0 0 Z " fill="#282828" transform="translate(329,128)"/>
<path d="M0 0 C3.05162453 1.33819387 4.8848566 2.71380525 6.99609375 5.28125 C7.5485376 5.94962891 8.10098145 6.61800781 8.67016602 7.30664062 C9.25338623 8.03044922 9.83660645 8.75425781 10.4375 9.5 C11.047146 10.24958984 11.65679199 10.99917969 12.28491211 11.77148438 C16.68898183 17.2418145 20.93046236 22.82182311 25.0625 28.5 C25.58577881 29.21607422 26.10905762 29.93214844 26.64819336 30.66992188 C33.92900263 40.83695539 33.92900263 40.83695539 36 46 C35.67 46.99 35.34 47.98 35 49 C18.15181559 39.99693239 8.0560503 29.50864662 1.93359375 11.26171875 C0.84318889 7.4521453 0.23689802 3.9483004 0 0 Z " fill="#060606" transform="translate(161,418)"/>
<path d="M0 0 C0.66 0.33 1.32 0.66 2 1 C2 1.66 2 2.32 2 3 C2.66 3 3.32 3 4 3 C4.33 2.01 4.66 1.02 5 0 C6.32 5.28 7.64 10.56 9 16 C9.66 12.37 10.32 8.74 11 5 C11.66 5 12.32 5 13 5 C12.67 9.29 12.34 13.58 12 18 C12.66 18.33 13.32 18.66 14 19 C13.505 19.680625 13.01 20.36125 12.5 21.0625 C9.34844691 27.23429146 11.37667646 33.60816358 13 40 C13.81597656 38.87851562 13.81597656 38.87851562 14.6484375 37.734375 C17.11175043 34.87005764 19.41100598 33.2078508 22.625 31.25 C24.06746094 30.36054688 24.06746094 30.36054688 25.5390625 29.453125 C27.00031784 28.59028852 28.48217156 27.75891422 30 27 C29.36563618 31.74393812 27.45738777 35.53935336 25.3125 39.75 C24.95599365 40.4630127 24.5994873 41.17602539 24.23217773 41.91064453 C22.25525412 45.79374523 20.15695486 49.36115095 17.5625 52.875 C14.38812891 57.32256058 14.02241539 61.63151463 14 67 C13.67 67 13.34 67 13 67 C12.28468364 61.51945916 11.5726923 56.03850045 10.86376953 50.55712891 C10.62216919 48.69275259 10.37966303 46.82849343 10.13623047 44.96435547 C9.78634865 42.28383228 9.43973376 39.60290375 9.09375 36.921875 C8.9843811 36.08944275 8.87501221 35.2570105 8.7623291 34.39935303 C8.66222534 33.61884583 8.56212158 32.83833862 8.45898438 32.03417969 C8.37015991 31.35023132 8.28133545 30.66628296 8.18981934 29.96160889 C7.99832038 27.98264268 8 25.98821002 8 24 C6.35 24 4.7 24 3 24 C2.67 23.34 2.34 22.68 2 22 C2.99 21.67 3.98 21.34 5 21 C4.4946875 20.60167969 3.989375 20.20335937 3.46875 19.79296875 C2.8190625 19.26316406 2.169375 18.73335938 1.5 18.1875 C0.8503125 17.66542969 0.200625 17.14335937 -0.46875 16.60546875 C-2 15 -2 15 -2 12 C1.81684226 13.55500981 4.19195732 16.03595495 7 19 C4.94865866 13.14795009 2.83397639 7.52625396 0 2 C0 1.34 0 0.68 0 0 Z " fill="#F4F4F4" transform="translate(144,333)"/>
<path d="M0 0 C4.66658693 2.6409285 8.35263793 6.64277586 10.75 11.4375 C11.41743326 20.0114504 10.98750601 25.61890317 5.3125 32.3125 C1.48801216 35.29137244 -2.68187679 34.95428891 -7.34765625 34.90625 C-10.67495004 34.36886742 -12.57582126 33.47673508 -15.25 31.4375 C-17.57010847 27.9785578 -17.79831309 24.71937752 -17.68359375 20.63671875 C-17.09504241 17.65154393 -15.6656136 15.90155463 -13.171875 14.1796875 C-9.53999542 12.77713238 -5.89102704 13.21688903 -2.25 14.4375 C-0.48046875 15.8125 -0.48046875 15.8125 0.75 17.4375 C0.75 18.4275 0.75 19.4175 0.75 20.4375 C0.09 20.4375 -0.57 20.4375 -1.25 20.4375 C-1.25 19.7775 -1.25 19.1175 -1.25 18.4375 C-2.85332791 18.35628076 -4.45784026 18.29820866 -6.0625 18.25 C-6.95582031 18.21519531 -7.84914063 18.18039062 -8.76953125 18.14453125 C-11.28533135 18.23415406 -11.28533135 18.23415406 -13.05078125 19.765625 C-14.91667962 22.3669426 -14.63089201 24.32688193 -14.25 27.4375 C-12.47015595 30.5734157 -11.72691793 31.27852736 -8.25 32.4375 C-3.53647352 32.82385463 -1.16167814 32.87645614 3.125 30.8125 C7.10555818 27.2110426 7.62571122 24.17754299 8 18.9375 C7.57814528 13.03153388 6.10009208 8.56451044 1.75 4.4375 C-3.53416794 1.87734112 -8.37529688 1.02468302 -14.25 1.4375 C-17.53910496 2.56675001 -17.53910496 2.56675001 -20.75 4.3125 C-21.64948364 4.77462891 -21.64948364 4.77462891 -22.56713867 5.24609375 C-27.13196894 7.66203713 -31.33263917 10.48479004 -35.5625 13.4375 C-50.31673615 23.68123302 -66.27142069 28.70592737 -84.25 27.4375 C-88.3360773 26.67740175 -92.28465136 25.678056 -96.25 24.4375 C-95.59 23.7775 -94.93 23.1175 -94.25 22.4375 C-91.30859375 22.8984375 -91.30859375 22.8984375 -87.6875 23.8125 C-70.33129148 27.73788996 -55.21410269 22.33424638 -40.25 13.4375 C-36.28614692 10.90099959 -32.38249535 8.27908928 -28.53979492 5.5625 C-19.92536938 -0.44660151 -10.27203483 -4.54792382 0 0 Z " fill="#CACACA" transform="translate(402.25,612.5625)"/>
<path d="M0 0 C1.32 0 2.64 0 4 0 C4.66 1.98 5.32 3.96 6 6 C7.32 6 8.64 6 10 6 C10 6.99 10 7.98 10 9 C10.99 9.33 11.98 9.66 13 10 C13 11.32 13 12.64 13 14 C13.99 14.33 14.98 14.66 16 15 C17.9837492 18.15066049 18.80243665 21.40730996 20 25 C14.39 25 8.78 25 3 25 C1.68 27.31 0.36 29.62 -1 32 C-1.33 31.34 -1.66 30.68 -2 30 C-1.505 29.154375 -1.01 28.30875 -0.5 27.4375 C1.81747127 22.12662834 0.79654538 17.38963614 -1 12 C-1.09338218 10.12686336 -1.12994843 8.25045638 -1.125 6.375 C-1.12757813 5.39273438 -1.13015625 4.41046875 -1.1328125 3.3984375 C-1 1 -1 1 0 0 Z " fill="#B7B7B7" transform="translate(345,113)"/>
<path d="M0 0 C2.375 0.75 2.375 0.75 3.375 1.75 C4.62860327 10.97293837 1.80229919 18.36535735 -1.625 26.75 C-3.605 26.75 -5.585 26.75 -7.625 26.75 C-8.61266013 24.54513181 -9.59018516 22.33662689 -10.5625 20.125 C-10.84029297 19.50753906 -11.11808594 18.89007813 -11.40429688 18.25390625 C-13.07660411 14.42573306 -14.1211308 10.89575924 -14.625 6.75 C-12.875 6.0625 -12.875 6.0625 -10.625 5.75 C-8.375 7.1875 -8.375 7.1875 -6.625 8.75 C-6.521875 7.821875 -6.41875 6.89375 -6.3125 5.9375 C-5.625 2.75 -5.625 2.75 -4.375 0.8125 C-2.625 -0.25 -2.625 -0.25 0 0 Z " fill="#C7C7C7" transform="translate(117.625,315.25)"/>
<path d="M0 0 C3.09119363 0.69551857 4.64843512 1.62418927 6.8125 3.9375 C8.62809396 8.61982127 8.66109221 13.04544083 8 18 C5.90878063 22.25712514 4.22677651 24.07308718 0 26 C-0.98475214 24.90081184 -1.96260473 23.7954398 -2.9375 22.6875 C-3.48277344 22.07261719 -4.02804687 21.45773437 -4.58984375 20.82421875 C-7.4520665 17.12156494 -7.3762621 13.51514514 -7 9 C-5.40096029 5.06572902 -3.58847747 2.39231831 0 0 Z " fill="#343434" transform="translate(325,596)"/>
<path d="M0 0 C4.875 0.875 4.875 0.875 6 2 C6.2857653 7.52479577 5.74511597 11.76465209 4 17 C3.34 17 2.68 17 2 17 C2.33 18.32 2.66 19.64 3 21 C2.01 21 1.02 21 0 21 C0 21.66 0 22.32 0 23 C-2.1875 23.375 -2.1875 23.375 -5 23 C-7.8125 20.25 -7.8125 20.25 -10 17 C-10 15.68 -10 14.36 -10 13 C-9.34 13 -8.68 13 -8 13 C-8.66 9.7 -9.32 6.4 -10 3 C-6 3 -6 3 -3.75 5 C-3.1725 5.66 -2.595 6.32 -2 7 C-1.34 4.69 -0.68 2.38 0 0 Z " fill="#C2C2C2" transform="translate(198,397)"/>
<path d="M0 0 C1.34844774 2.6487763 2.59720825 5.3158623 3.76953125 8.046875 C4.10146484 8.81 4.43339844 9.573125 4.77539062 10.359375 C5.45923826 11.93570175 6.13902361 13.51379792 6.81445312 15.09375 C8.88763231 19.83699296 11.21250365 24.11280198 14.15112305 28.37988281 C14.57131714 29.18184082 14.57131714 29.18184082 15 30 C14.67 30.66 14.34 31.32 14 32 C1.64425625 32.91148929 -5.5372985 27.60147161 -15 20 C-15 19.67 -15 19.34 -15 19 C-9.4978184 18.76863363 -4.86146222 19.5649654 0.4375 21 C1.16904297 21.19078125 1.90058594 21.3815625 2.65429688 21.578125 C4.43819666 22.04450403 6.21939845 22.52118278 8 23 C7.50628906 21.95199219 7.01257813 20.90398437 6.50390625 19.82421875 C5.85668373 18.44535338 5.20955311 17.06644488 4.5625 15.6875 C4.23701172 14.99720703 3.91152344 14.30691406 3.57617188 13.59570312 C2.24512515 10.75522197 0.99292066 7.97876197 0 5 C-0.66 4.34 -1.32 3.68 -2 3 C-1.34 3 -0.68 3 0 3 C0 2.01 0 1.02 0 0 Z " fill="#D8D8D8" transform="translate(113,347)"/>
<path d="M0 0 C1.9375 0.25 1.9375 0.25 4 1 C6.02091635 4.03137453 6.87832928 6.55516856 8 10 C9.32610931 13.14510881 10.69555427 16.26824122 12.07421875 19.390625 C12.37972656 20.25171875 12.68523437 21.1128125 13 22 C12.67 22.66 12.34 23.32 12 24 C8.78796065 21.50174717 5.82506863 18.9297008 3 16 C4.09898702 19.29696105 4.94597387 20.04670589 7.5625 22.1875 C8.20316406 22.71730469 8.84382812 23.24710937 9.50390625 23.79296875 C9.99761719 24.19128906 10.49132812 24.58960938 11 25 C9.2109375 26.08984375 9.2109375 26.08984375 7 27 C1.5919464 24.69656976 -3.02027654 21.17847101 -6 16 C-5.67 15.01 -5.34 14.02 -5 13 C-2.03 13.495 -2.03 13.495 1 14 C0.67 12.96875 0.34 11.9375 0 10.875 C-0.96433957 7.51007045 -1.25115367 4.51615139 -1 1 C-0.67 0.67 -0.34 0.34 0 0 Z " fill="#D3D3D3" transform="translate(139,329)"/>
<path d="M0 0 C-2.96681913 0.98893971 -5.21059547 1.16233865 -8.3125 1.3125 C-14.7170595 1.87015294 -17.95351946 3.84580996 -22.375 8.5 C-24.72530457 13.56219446 -24.82118478 18.50324061 -24 24 C-23.05525932 25.69860025 -22.06312966 27.37287582 -21 29 C-21 29.66 -21 30.32 -21 31 C-15.60819457 32.51606321 -10.31615914 32.82030636 -5 30.9375 C-2.70108598 29.03046611 -2.70108598 29.03046611 -2 25.5625 C-1.7993928 22.12720206 -1.7993928 22.12720206 -2.875 19.5625 C-5.83884216 17.3832043 -8.24470503 17.60407842 -11.84375 17.6640625 C-14.29113699 17.89075624 -14.29113699 17.89075624 -17 20 C-16.8125 17.625 -16.8125 17.625 -16 15 C-12.42678346 12.85607008 -9.09608149 12.4148455 -5 13 C-1.625 15 -1.625 15 1 18 C1.98973477 21.99112557 1.40142962 25.09678336 -0.25 28.8125 C-2.80228454 32.00285568 -4.67930463 33.79582565 -8.8046875 34.43359375 C-13.51404774 34.4395853 -17.13084318 34.37249578 -21.5 32.5 C-25.63514879 28.36485121 -28.15029715 23.92163487 -28.5 18 C-28.11623577 11.68645939 -25.23323423 6.83473948 -20.625 2.625 C-14.69862686 -2.01522407 -6.78222817 -4.34062603 0 0 Z " fill="#ECECEC" transform="translate(266,613)"/>
<path d="M0 0 C1.9375 0.25 1.9375 0.25 4 1 C6 4 6 4 6 7 C6.7425 6.195625 7.485 5.39125 8.25 4.5625 C11.96069869 1.10480349 11.96069869 1.10480349 15 1 C17 3 17 3 17.5625 5.9375 C17.44198949 11.62559605 13.55056383 16.79558502 10 21 C9.01 21 8.02 21 7 21 C6.97291433 19.39592672 6.95356517 17.7917215 6.9375 16.1875 C6.92589844 15.29417969 6.91429687 14.40085937 6.90234375 13.48046875 C7 11 7 11 8 8 C7.34 8 6.68 8 6 8 C6.04125 9.2375 6.0825 10.475 6.125 11.75 C6.13658291 15.01637962 5.8568702 17.2146947 4 20 C1.43576041 13.82251371 -0.29601569 7.67611785 -1 1 C-0.67 0.67 -0.34 0.34 0 0 Z " fill="#C5C5C5" transform="translate(149,330)"/>
<path d="M0 0 C0.66 0.66 1.32 1.32 2 2 C2.99 2 3.98 2 5 2 C4.67 3.65 4.34 5.3 4 7 C3.01 7 2.02 7 1 7 C1.66 6.01 2.32 5.02 3 4 C0.69 5.65 -1.62 7.3 -4 9 C-3.67 9.66 -3.34 10.32 -3 11 C-4.65 11.33 -6.3 11.66 -8 12 C-8.03738281 12.55945313 -8.07476562 13.11890625 -8.11328125 13.6953125 C-8.64149115 20.13740182 -9.88739076 26.26865929 -11.30078125 32.5703125 C-12.20988085 37.02947143 -12.696858 41.4633231 -13 46 C-12.34 46.33 -11.68 46.66 -11 47 C-11.44988281 47.37769531 -11.89976562 47.75539062 -12.36328125 48.14453125 C-14.43575224 50.4939912 -15.17872082 52.73073344 -16.1875 55.6875 C-16.53167969 56.68136719 -16.87585938 57.67523438 -17.23046875 58.69921875 C-17.48441406 59.45847656 -17.73835938 60.21773437 -18 61 C-19.77630997 55.67107008 -18.108902 51.00864225 -16 46 C-14.35833968 40.09002284 -14.47991107 33.89939276 -16 28 C-16 27.01 -16 26.02 -16 25 C-16.33 24.34 -16.66 23.68 -17 23 C-17.66 23.33 -18.32 23.66 -19 24 C-19.99 20.37 -20.98 16.74 -22 13 C-13.125 18.75 -13.125 18.75 -12 21 C-11.63495397 19.41913952 -11.28339494 17.83516093 -10.9375 16.25 C-10.74027344 15.36828125 -10.54304688 14.4865625 -10.33984375 13.578125 C-10.00174128 11.01320972 -10.18841365 9.42908361 -11 7 C-9.35 7.33 -7.7 7.66 -6 8 C-5.195625 7.05125 -4.39125 6.1025 -3.5625 5.125 C-3.11003906 4.59132812 -2.65757812 4.05765625 -2.19140625 3.5078125 C-0.9121848 1.99405921 -0.9121848 1.99405921 0 0 Z " fill="#C9C9C9" transform="translate(329,128)"/>
<path d="M0 0 C2.475 0.495 2.475 0.495 5 1 C5.86948243 7.78196296 2.44071626 12.60934587 -1.375 17.91015625 C-2.6875 19.5625 -2.6875 19.5625 -5 22 C-5.66 22 -6.32 22 -7 22 C-6.83628906 22.69480469 -6.67257813 23.38960938 -6.50390625 24.10546875 C-5.95904004 27.2352816 -5.90261517 30.13798083 -5.9375 33.3125 C-5.94652344 34.38113281 -5.95554688 35.44976562 -5.96484375 36.55078125 C-5.97644531 37.35902344 -5.98804688 38.16726563 -6 39 C-6.33 39 -6.66 39 -7 39 C-7.07476562 37.95199219 -7.14953125 36.90398437 -7.2265625 35.82421875 C-7.35790036 34.44517126 -7.49079452 33.06627137 -7.625 31.6875 C-7.67011719 30.99720703 -7.71523437 30.30691406 -7.76171875 29.59570312 C-7.94878272 27.28376766 -7.94878272 27.28376766 -9 24 C-11.94213047 21.94343823 -11.94213047 21.94343823 -15 21 C-14.34 20.67 -13.68 20.34 -13 20 C-12.34 20.33 -11.68 20.66 -11 21 C-11 20.34 -11 19.68 -11 19 C-10.34 18.67 -9.68 18.34 -9 18 C-9 17.01 -9 16.02 -9 15 C-8.34 15 -7.68 15 -7 15 C-6.67 12.69 -6.34 10.38 -6 8 C-5.34 8 -4.68 8 -4 8 C-3.71125 7.236875 -3.4225 6.47375 -3.125 5.6875 C-2 3 -2 3 0 0 Z " fill="#EDEDED" transform="translate(209,399)"/>
<path d="M0 0 C0.99 0 1.98 0 3 0 C3.33 1.32 3.66 2.64 4 4 C5.65 3.34 7.3 2.68 9 2 C8.67 2.99 8.34 3.98 8 5 C7.38125 5.2475 6.7625 5.495 6.125 5.75 C2.81231437 7.69863861 2.31381368 10.45270306 1 14 C2.98 12.35 4.96 10.7 7 9 C7.66 9.66 8.32 10.32 9 11 C8.175 11.433125 7.35 11.86625 6.5 12.3125 C5.675 12.869375 4.85 13.42625 4 14 C4 14.99 4 15.98 4 17 C2.68 17 1.36 17 0 17 C-0.82650905 23.00087244 -1.2790899 28.95082054 -1.5625 35 C-1.60568359 35.87011719 -1.64886719 36.74023438 -1.69335938 37.63671875 C-1.79824218 39.75768219 -1.89950075 41.87882433 -2 44 C-2.33 44 -2.66 44 -3 44 C-3 41.36 -3 38.72 -3 36 C-3.66 36 -4.32 36 -5 36 C-5.125 31.25 -5.125 31.25 -4 29 C-4.99 28.01 -5.98 27.02 -7 26 C-6.67 26.99 -6.34 27.98 -6 29 C-6.99 29 -7.98 29 -9 29 C-10.58706842 24.8922935 -11.10191901 23.40767604 -10 19 C-8.02 20.98 -6.04 22.96 -4 25 C-2.58066487 20.74199462 -2.27348323 16.77088462 -4 12.5625 C-4.33 12.046875 -4.66 11.53125 -5 11 C-4.34 11.33 -3.68 11.66 -3 12 C-3.44703986 7.52116304 -3.44703986 7.52116304 -6 4 C-6 5.65 -6 7.3 -6 9 C-8 7 -8 7 -8.125 4.375 C-8.08375 3.59125 -8.0425 2.8075 -8 2 C-6.68 2 -5.36 2 -4 2 C-3.01 3.485 -3.01 3.485 -2 5 C-1.34 3.35 -0.68 1.7 0 0 Z " fill="#C8C8C8" transform="translate(286,164)"/>
<path d="M0 0 C0.66 0.66 1.32 1.32 2 2 C1.46428571 5.53571429 1.46428571 5.53571429 0 7 C-6.69493674 7.65636635 -12.25384508 5.95454034 -18.6328125 3.97265625 C-21.75560411 3.07059696 -24.78642267 2.46396633 -28 2 C-22.16050408 -5.55699471 -7.14757793 -4.89044806 0 0 Z " fill="#C9C9C9" transform="translate(375,636)"/>
<path d="M0 0 C1.32 0.66 2.64 1.32 4 2 C4 2.66 4 3.32 4 4 C4.66 4 5.32 4 6 4 C6.66 2.68 7.32 1.36 8 0 C11 1 11 1 12 3 C12.45375 2.505 12.9075 2.01 13.375 1.5 C15 0 15 0 17 0 C16.67 2.31 16.34 4.62 16 7 C15.34 7 14.68 7 14 7 C13.773125 7.7425 13.54625 8.485 13.3125 9.25 C11.75592468 12.51139591 9.91481146 13.92894975 7 16 C7 15.34 7 14.68 7 14 C5.8553125 14.1546875 5.8553125 14.1546875 4.6875 14.3125 C2 14 2 14 0.1875 12 C-1.3790045 8.04251496 -1.28277537 5.24163052 -1 1 C-0.67 0.67 -0.34 0.34 0 0 Z " fill="#9A9A9A" transform="translate(315,121)"/>
<path d="M0 0 C1.13982985 3.41948955 0.94098974 3.77577296 -0.51171875 6.87109375 C-0.85783203 7.61037109 -1.20394531 8.34964844 -1.56054688 9.11132812 C-2.11838867 10.2627832 -2.11838867 10.2627832 -2.6875 11.4375 C-3.21633789 12.5831543 -3.21633789 12.5831543 -3.75585938 13.75195312 C-5.68077534 17.79533236 -7.42627449 21.15412082 -11 24 C-11.99 24.33 -12.98 24.66 -14 25 C-14 24.01 -14 23.02 -14 22 C-14.66 22 -15.32 22 -16 22 C-16.27046909 12.49977327 -16.27046909 12.49977327 -13.3984375 9.109375 C-11.32934633 7.59150889 -9.21962886 6.28628669 -7 5 C-5.65742074 4.05466329 -4.323262 3.09719249 -3 2.125 C-2.01 1.42375 -1.02 0.7225 0 0 Z " fill="#DFDFDF" transform="translate(173,360)"/>
<path d="M0 0 C9.21472089 -0.79437249 18.28612402 1.85741601 26 7 C26 7.66 26 8.32 26 9 C4.04565775 9.23979257 4.04565775 9.23979257 -0.0625 6.75 C-1.40469845 4.24456289 -0.7875684 2.6490937 0 0 Z " fill="#050505" transform="translate(85,340)"/>
<path d="M0 0 C5.222811 0.66179454 7.03584827 2.60075501 10.2890625 6.54296875 C14.18610184 12.13940196 16.861054 18.27537204 18 25 C13.16707707 21.32277603 9.36330719 17.24933405 5.625 12.5 C4.96395264 11.68172729 4.96395264 11.68172729 4.28955078 10.84692383 C1.54946088 7.27924332 0.36439251 4.48067832 0 0 Z " fill="#0D0D0D" transform="translate(90,318)"/>
<path d="M0 0 C1.32 0 2.64 0 4 0 C4.66 1.98 5.32 3.96 6 6 C7.32 6 8.64 6 10 6 C9.41936021 10.79027826 7.66331788 14.04307058 5 18 C2.75 18.9375 2.75 18.9375 1 19 C-1.1310677 13.0063721 -1.47201787 7.34479831 -1 1 C-0.67 0.67 -0.34 0.34 0 0 Z " fill="#B6B6B6" transform="translate(345,113)"/>
<path d="M0 0 C0.66 0.33 1.32 0.66 2 1 C1.43152344 1.4846875 0.86304688 1.969375 0.27734375 2.46875 C-3.67103707 5.89639278 -7.3820965 9.30521526 -10.75 13.3125 C-15.05207613 18.37961046 -19.11191326 20.60612725 -25.69921875 21.2734375 C-33.07244483 21.5240308 -38.1909172 20.70310215 -44 16 C-46.85494339 13.14027446 -49.47726897 10.15513226 -52 7 C-51.67 6.34 -51.34 5.68 -51 5 C-50.18208984 5.90492188 -50.18208984 5.90492188 -49.34765625 6.828125 C-43.0248438 13.52922537 -37.4828689 17.97372694 -28.0625 18.5625 C-20.00410261 18.13902935 -14.30370603 14.6712761 -8.88867188 8.81176758 C-7.61285059 7.36942249 -6.37007548 5.89805101 -5.12890625 4.42578125 C-3 2 -3 2 0 0 Z " fill="#EDEDED" transform="translate(354,615)"/>
<path d="M0 0 C14.64985975 -0.73147705 14.64985975 -0.73147705 21 4 C22.64189957 5.08928612 24.28790612 6.17240152 25.9375 7.25 C27.29321645 8.16437303 28.64793888 9.08023053 30 10 C34.187199 8.01658995 38.07566808 6.05923116 41.8125 3.3125 C46.47872682 -0.07280181 49.53872572 -0.11432362 55.1875 -0.0625 C56.45980469 -0.05347656 57.73210937 -0.04445313 59.04296875 -0.03515625 C60.50669922 -0.01775391 60.50669922 -0.01775391 62 0 C62.495 0.99 62.495 0.99 63 2 C62.154375 1.95359375 61.30875 1.9071875 60.4375 1.859375 C49.42550876 1.50899346 44.113896 3.99254437 36 11 C33.58511607 12.60992262 32.61405561 13.05792977 29.72265625 12.78515625 C26.3507139 11.81275968 24.26593768 10.2107634 21.5 8.0625 C16.58507431 4.25895498 12.72180222 1.67870715 6.375 1.875 C5.24191406 1.90207031 5.24191406 1.90207031 4.0859375 1.9296875 C3.39757812 1.95289063 2.70921875 1.97609375 2 2 C1.01 2 0.02 2 -1 2 C-0.67 1.34 -0.34 0.68 0 0 Z " fill="#D8D8D8" transform="translate(295,613)"/>
<path d="M0 0 C1.32 0 2.64 0 4 0 C4.56377723 8.83250989 3.26258646 15.78527339 0 24 C-0.66 24 -1.32 24 -2 24 C-3.45362644 15.82335129 -4.71932657 7.27562846 0 0 Z " fill="#0A0A0A" transform="translate(115,317)"/>
<path d="M0 0 C6.09781001 -0.22084624 11.21642935 -0.01167675 17 2 C16.34 2.66 15.68 3.32 15 4 C13.171875 3.62890625 13.171875 3.62890625 11 3 C9.41788427 2.93451508 7.83329919 2.91421619 6.25 2.9375 C5.05117187 2.95103516 5.05117187 2.95103516 3.828125 2.96484375 C2.92320313 2.98224609 2.92320313 2.98224609 2 3 C2.37904208 6.29075996 2.37904208 6.29075996 4 9 C5.7037908 9.22753357 7.41573499 9.39473238 9.12890625 9.53515625 C10.16337891 9.62216797 11.19785156 9.70917969 12.26367188 9.79882812 C13.8965918 9.9293457 13.8965918 9.9293457 15.5625 10.0625 C16.65498047 10.15337891 17.74746094 10.24425781 18.87304688 10.33789062 C21.58172492 10.56262811 24.29068166 10.78314089 27 11 C24.11020289 13.88979711 21.96605188 13.30040225 17.9375 13.3125 C10.93486852 13.26900539 4.24612295 12.95970034 -1.125 8.0625 C-2.19467916 5.54111342 -2.00466664 4.5116666 -1 2 C-0.67 1.34 -0.34 0.68 0 0 Z " fill="#DDDDDD" transform="translate(83,338)"/>
<path d="M0 0 C3.65670322 0.55999689 3.65670322 0.55999689 5.17260742 2.50292969 C5.48045166 3.13618164 5.7882959 3.76943359 6.10546875 4.421875 C6.44900391 5.11796875 6.79253906 5.8140625 7.14648438 6.53125 C7.49001953 7.2634375 7.83355469 7.995625 8.1875 8.75 C8.54263672 9.46671875 8.89777344 10.1834375 9.26367188 10.921875 C11.03827277 14.58556718 12.46209098 17.92152567 13 22 C7.96262284 19.14596195 5.56297045 16.2970449 3.125 11 C2.81820312 10.38382812 2.51140625 9.76765625 2.1953125 9.1328125 C0.58183049 5.77619368 0 3.79840508 0 0 Z " fill="#101010" transform="translate(139,331)"/>
<path d="M0 0 C1.82917969 0.01933594 1.82917969 0.01933594 3.6953125 0.0390625 C6.875 0.375 6.875 0.375 9.875 2.375 C8.93398438 2.41238281 7.99296875 2.44976563 7.0234375 2.48828125 C5.15558594 2.58689453 5.15558594 2.58689453 3.25 2.6875 C1.40535156 2.77451172 1.40535156 2.77451172 -0.4765625 2.86328125 C-4.2673425 3.39496453 -6.82529671 4.48147796 -10.125 6.375 C-3.72871021 6.49568471 2.51349395 6.02986092 8.875 5.375 C3.44751396 8.99332403 -3.57486504 11.17379695 -10.125 10.375 C-11.115 9.715 -12.105 9.055 -13.125 8.375 C-12.80929266 5.42839818 -12.14312115 4.39322201 -10.01953125 2.2578125 C-6.41948488 -0.08391807 -4.25961018 -0.09948134 0 0 Z " fill="#D9D9D9" transform="translate(288.125,632.625)"/>
<path d="M0 0 C0.33 0 0.66 0 1 0 C1.99 4.62 2.98 9.24 4 14 C4.66 13.67 5.32 13.34 6 13 C5.34 16.3 4.68 19.6 4 23 C4.66 23 5.32 23 6 23 C6.33 23.66 6.66 24.32 7 25 C7.66 24.67 8.32 24.34 9 24 C7.125 28.75 7.125 28.75 6 31 C5.77377919 32.70363822 5.59111527 34.41328701 5.4375 36.125 C5.31181641 37.49011719 5.31181641 37.49011719 5.18359375 38.8828125 C5.12300781 39.58148438 5.06242188 40.28015625 5 41 C4.67 41 4.34 41 4 41 C3.42299919 36.60842533 2.85365059 32.21594246 2.29101562 27.82250977 C2.09904605 26.33168566 1.90507911 24.8411172 1.70898438 23.35083008 C0.6835529 15.54761042 -0.28465966 7.89041002 0 0 Z " fill="#E2E2E2" transform="translate(153,359)"/>
<path d="M0 0 C1.32 0.66 2.64 1.32 4 2 C3.0960603 3.94347036 2.176325 5.87959907 1.25 7.8125 C0.73953125 8.89144531 0.2290625 9.97039062 -0.296875 11.08203125 C-1.95747366 13.9271395 -3.23510835 15.2869693 -6 17 C-6.33 16.01 -6.66 15.02 -7 14 C-6.67 13.34 -6.34 12.68 -6 12 C-6.66 12 -7.32 12 -8 12 C-6.71999898 6.99635967 -4.82671924 4.43423522 -1 1 C-0.67 0.67 -0.34 0.34 0 0 Z " fill="#B7B7B7" transform="translate(211,432)"/>
<path d="M0 0 C-0.33 2.31 -0.66 4.62 -1 7 C-1.66 7 -2.32 7 -3 7 C-3.226875 7.7425 -3.45375 8.485 -3.6875 9.25 C-5.24407532 12.51139591 -7.08518854 13.92894975 -10 16 C-10 15.34 -10 14.68 -10 14 C-10.99 14 -11.98 14 -13 14 C-13 11.03 -13 8.06 -13 5 C-12.34 5 -11.68 5 -11 5 C-10.67 6.98 -10.34 8.96 -10 11 C-9.608125 9.9275 -9.21625 8.855 -8.8125 7.75 C-7.16506153 3.88244207 -4.59618054 0 0 0 Z " fill="#C0C0C0" transform="translate(332,121)"/>
<path d="M0 0 C0.99 0 1.98 0 3 0 C3.7222991 6.62107512 2.30208361 9.8868756 -1.4921875 15.3125 C-2.23855469 16.1478125 -2.23855469 16.1478125 -3 17 C-3.66 17 -4.32 17 -5 17 C-5.54335626 10.34388587 -4.80091227 6.52859966 -1 1 C-0.67 0.67 -0.34 0.34 0 0 Z " fill="#0F0F0F" transform="translate(161,333)"/>
<path d="M0 0 C1.76953125 1.375 1.76953125 1.375 3 3 C3 3.99 3 4.98 3 6 C2.34 6 1.68 6 1 6 C1 5.34 1 4.68 1 4 C-0.60332791 3.91878076 -2.20784026 3.86070866 -3.8125 3.8125 C-5.15248047 3.76029297 -5.15248047 3.76029297 -6.51953125 3.70703125 C-9.01942462 3.80341581 -9.01942462 3.80341581 -10.78125 5.25 C-12.22181418 7.31850241 -12.48275743 8.68964066 -12.6875 11.1875 C-12.790625 12.445625 -12.89375 13.70375 -13 15 C-15.35858628 12.64141372 -15.36946499 11.92368052 -15.5 8.6875 C-15.39417705 4.83429954 -15.07111357 4.09117124 -12.5625 0.875 C-8.63844694 -1.83446521 -4.39553798 -1.47355178 0 0 Z " fill="#E8E8E8" transform="translate(400,627)"/>
<path d="M0 0 C0.33 0.66 0.66 1.32 1 2 C0.67 2.66 0.34 3.32 0 4 C0.825 3.835 1.65 3.67 2.5 3.5 C6.41272317 2.94103955 10.05183173 2.93192813 14 3 C11.36285735 5.9301585 8.41767633 8.0470421 5 10 C2.625 9.75 2.625 9.75 1 9 C1.33 8.67 1.66 8.34 2 8 C1.01 8 0.02 8 -1 8 C-1 8.66 -1 9.32 -1 10 C-2.98 10.66 -4.96 11.32 -7 12 C-5.61735163 9.13132769 -4.07851447 6.43975968 -2.375 3.75 C-1.92898438 3.04359375 -1.48296875 2.3371875 -1.0234375 1.609375 C-0.68570312 1.07828125 -0.34796875 0.5471875 0 0 Z " fill="#C5C5C5" transform="translate(342,145)"/>
<path d="M0 0 C2.64783425 3.02609628 3.03006965 3.46487423 3.125 7.1875 C2.625 11 2.625 11 0.625 13 C-0.05859375 9.97265625 -0.05859375 9.97265625 -0.7421875 6.9453125 C-1.27974428 4.79280036 -1.27974428 4.79280036 -3.375 3 C-5.48089077 2.68136311 -5.48089077 2.68136311 -7.8125 2.75 C-8.59496094 2.74484375 -9.37742188 2.7396875 -10.18359375 2.734375 C-12.66544107 2.86823169 -12.66544107 2.86823169 -15.375 5 C-15.1875 2.625 -15.1875 2.625 -14.375 0 C-9.33975153 -3.02114908 -4.98319433 -2.95300405 0 0 Z " fill="#EAEAEA" transform="translate(264.375,628)"/>
<path d="M0 0 C2.25 1.625 2.25 1.625 3.25 3.625 C-5.09525522 4.14417486 -12.66038514 2.58329294 -20.75 0.625 C-14.73283652 -3.05867813 -6.39051471 -2.34318873 0 0 Z " fill="#0D0D0D" transform="translate(371.75,636.375)"/>
<path d="M0 0 C1.1446875 -0.01417969 2.289375 -0.02835938 3.46875 -0.04296875 C6.5 0.1875 6.5 0.1875 9.5 2.1875 C1.71930149 4.04689879 -5.48298054 5.60217342 -13.5 5.1875 C-9.16417365 0.55265115 -6.26297267 0.03526449 0 0 Z " fill="#080808" transform="translate(290.5,634.8125)"/>
<path d="M0 0 C5.19209404 -0.21192221 9.126739 0.4087311 14 2 C13.67 2.99 13.34 3.98 13 5 C15.97 5.495 15.97 5.495 19 6 C18.34 6.66 17.68 7.32 17 8 C14.525 7.01 14.525 7.01 12 6 C12.33 6.99 12.66 7.98 13 9 C9.91220974 7.53400783 7.09532795 5.82973607 4.25 3.9375 C3.45078125 3.41027344 2.6515625 2.88304687 1.828125 2.33984375 C1.22484375 1.89769531 0.6215625 1.45554687 0 1 C0 0.67 0 0.34 0 0 Z " fill="#E6E6E6" transform="translate(98,366)"/>
<path d="M0 0 C0.99 0.33 1.98 0.66 3 1 C3.03738281 1.59167969 3.07476562 2.18335938 3.11328125 2.79296875 C3.51868108 7.66571569 4.14280897 10.90055199 7 15 C7 15.66 7 16.32 7 17 C12.3855792 18.51431252 17.79643468 19.03145611 22.9375 16.625 C25.06083743 15.01770773 25.06083743 15.01770773 27 13 C27 16 27 16 25.25 18.1875 C20.27362889 20.96278389 15.57021465 20.72556392 10 20 C5.05818343 17.88207861 2.84605843 14.93431027 0.6796875 10.171875 C-0.41467562 6.67494457 -0.25995667 3.63939334 0 0 Z " fill="#C8C8C8" transform="translate(238,627)"/>
<path d="M0 0 C1.921875 0.7421875 1.921875 0.7421875 4 2 C6.3214585 7.278033 6.20580837 13.34026989 6 19 C3.71710782 16.15950485 2.1403066 13.42932456 0.75 10.0625 C0.21632813 8.81146484 0.21632813 8.81146484 -0.328125 7.53515625 C-1.09532941 4.64029773 -0.79699305 2.85589177 0 0 Z " fill="#0E0E0E" transform="translate(105,323)"/>
<path d="M0 0 C0.66 0.33 1.32 0.66 2 1 C1.68916714 7.06124079 -1.32388391 11.36828875 -5 16 C-5.66 16.33 -6.32 16.66 -7 17 C-6.64139443 10.30602942 -4.86261324 4.86261324 0 0 Z " fill="#0E0E0E" transform="translate(211,400)"/>
<path d="M0 0 C3.0625 0.1875 3.0625 0.1875 5.0625 2.1875 C4.50694444 6.74305556 4.50694444 6.74305556 3.0625 8.1875 C0.0625 8.3125 0.0625 8.3125 -2.9375 8.1875 C-3.9375 7.1875 -3.9375 7.1875 -4.0625 4.1875 C-3.89838889 0.24883333 -3.89838889 0.24883333 0 0 Z " fill="#868686" transform="translate(419.9375,627.8125)"/>
<path d="M0 0 C2.93200474 2.85276137 5.64315404 5.65079784 8 9 C7.67 9.66 7.34 10.32 7 11 C4.8125 11.375 4.8125 11.375 2 11 C-0.8125 8.25 -0.8125 8.25 -3 5 C-3 3.68 -3 2.36 -3 1 C-2.01 0.67 -1.02 0.34 0 0 Z " fill="#D5D5D5" transform="translate(191,409)"/>
<path d="M0 0 C8.875 5.75 8.875 5.75 10 8 C10.04022391 10.3329866 10.04320247 12.66706666 10 15 C7 14 7 14 5.8125 11.9375 C5.544375 11.298125 5.27625 10.65875 5 10 C4.01 10.495 4.01 10.495 3 11 C2.01 7.37 1.02 3.74 0 0 Z " fill="#A8A8A8" transform="translate(307,141)"/>
<path d="M0 0 C9.33902138 8.77302008 17.46166865 19.98676996 22 32 C21.34 32.66 20.68 33.32 20 34 C19.67 32.9275 19.34 31.855 19 30.75 C15.3106649 20.95774609 8.05819134 12.59855033 1.6875 4.3984375 C0 2 0 2 0 0 Z " fill="#D6D6D6" transform="translate(177,434)"/>
<path d="M0 0 C4.87400165 2.03256239 6.62209178 5.46264863 9 10 C10.3125 13.5 10.3125 13.5 11 16 C6.15421504 13.93975303 3.65535174 10.43928774 1 6 C0.125 2.5 0.125 2.5 0 0 Z " fill="#0B0B0B" transform="translate(190,402)"/>
<path d="M0 0 C3 1 3 1 4 3 C4.0716735 5.55157655 4.09308442 8.07472971 4.0625 10.625 C4.05798828 11.33140625 4.05347656 12.0378125 4.04882812 12.765625 C4.03703875 14.51045275 4.01910324 16.255237 4 18 C2 17 2 17 1.1484375 14.92578125 C-1.50778996 5.95095211 -1.50778996 5.95095211 -1 1 C-0.67 0.67 -0.34 0.34 0 0 Z " fill="#101010" transform="translate(150,332)"/>
<path d="M0 0 C2.5625 0.1875 2.5625 0.1875 4.5625 2.1875 C4.00694444 6.74305556 4.00694444 6.74305556 2.5625 8.1875 C0.125 8.375 0.125 8.375 -2.4375 8.1875 C-3.0975 7.5275 -3.7575 6.8675 -4.4375 6.1875 C-3.71780303 0.28598485 -3.71780303 0.28598485 0 0 Z " fill="#AEAEAE" transform="translate(231.4375,627.8125)"/>
<path d="M0 0 C1 3 1 3 0.375 5.625 C-1 8 -1 8 -3.4375 8.75 C-4.7059375 8.87375 -4.7059375 8.87375 -6 9 C-6.99 9.33 -7.98 9.66 -9 10 C-9.71727778 11.64551962 -10.38325228 13.31422289 -11 15 C-11.66 15.66 -12.32 16.32 -13 17 C-13.66 16.67 -14.32 16.34 -15 16 C-15 12.7 -15 9.4 -15 6 C-14.67 6 -14.34 6 -14 6 C-14 8.31 -14 10.62 -14 13 C-13.360625 12.34 -12.72125 11.68 -12.0625 11 C-8.2170765 7.14346256 -4.09075581 3.59166578 0 0 Z " fill="#E8E8E8" transform="translate(216,425)"/>
<path d="M0 0 C0.99 0 1.98 0 3 0 C3.33 1.32 3.66 2.64 4 4 C5.65 3.34 7.3 2.68 9 2 C8.67 2.99 8.34 3.98 8 5 C7.360625 5.309375 6.72125 5.61875 6.0625 5.9375 C3.513651 7.25054342 3.21754073 8.48374915 2 11 C1.01 11.33 0.02 11.66 -1 12 C-2.11658501 7.31034294 -1.80619523 4.46236469 0 0 Z " fill="#525252" transform="translate(286,164)"/>
<path d="M0 0 C3.5731559 1.19105197 4.25003825 2.29454177 6.5 5.25 C8.92219573 8.38168216 11.37168155 11.46175764 13.96875 14.44921875 C14.47083984 15.02833008 14.97292969 15.60744141 15.49023438 16.20410156 C16.48612583 17.34750863 17.48733466 18.4863089 18.49414062 19.62011719 C22 23.66896327 22 23.66896327 22 27 C13.7037205 19.04939881 6.46709998 10.49855309 0 1 C0 0.67 0 0.34 0 0 Z " fill="#D6D6D6" transform="translate(127,379)"/>
<path d="M0 0 C0 3.53410492 -0.48474307 3.84881566 -2.8125 6.3125 C-5.5254866 9.32692956 -7.35876606 12.26163381 -9 16 C-9.66 16 -10.32 16 -11 16 C-11 9.15604396 -11 9.15604396 -8.22265625 5.9453125 C-5.61125298 3.66918885 -3.1069979 1.55349895 0 0 Z " fill="#252525" transform="translate(168,366)"/>
<path d="M0 0 C4.7190991 0.46765847 6.91832317 2.34934594 10.3125 5.5625 C11.19550781 6.38878906 12.07851562 7.21507812 12.98828125 8.06640625 C13.65214844 8.70449219 14.31601563 9.34257812 15 10 C14.01 10.33 13.02 10.66 12 11 C9.84375 9.890625 9.84375 9.890625 7.5 8.25 C6.7265625 7.71890625 5.953125 7.1878125 5.15625 6.640625 C3.24827658 5.1889061 1.55932549 3.81921307 0 2 C0 1.34 0 0.68 0 0 Z " fill="#191919" transform="translate(135,344)"/>
<path d="M0 0 C0.66 0 1.32 0 2 0 C1.90276381 4.08391981 1.00447569 6.50332575 -1.8125 9.375 C-5.99694037 12.67576974 -9.96089238 12.60465794 -15.1328125 12.50390625 C-18.32965814 11.94206281 -20.34198768 10.82555791 -23 9 C-22.67 7.68 -22.34 6.36 -22 5 C-21.3503125 5.9590625 -21.3503125 5.9590625 -20.6875 6.9375 C-19.08760823 9.26746003 -19.08760823 9.26746003 -16 10 C-11.28647352 10.38635463 -8.91167814 10.43895614 -4.625 8.375 C-1.6702998 5.70169982 -0.87294575 3.84096129 0 0 Z " fill="#CECECE" transform="translate(410,635)"/>
<path d="M0 0 C3.28092311 1.64046155 3.67200396 5.26102535 4.8125 8.5625 C6.96011517 14.56463836 9.2921964 19.76545374 13 25 C12.01 25 11.02 25 10 25 C4.54674362 18.29613015 0 8.68769006 0 0 Z " fill="#D4D4D4" transform="translate(161,425)"/>
<path d="M0 0 C0.33 1.32 0.66 2.64 1 4 C-3.95 4 -8.9 4 -14 4 C-11.74611868 0.61917801 -11.32313206 0.51571162 -7.5625 -0.25 C-6.38880859 -0.50523437 -6.38880859 -0.50523437 -5.19140625 -0.765625 C-3 -1 -3 -1 0 0 Z " fill="#0E0E0E" transform="translate(363,132)"/>
<path d="M0 0 C0.33 1.32 0.66 2.64 1 4 C1.66 4 2.32 4 3 4 C2.47731534 6.76276177 1.89130413 9.3260876 1 12 C-0.65 12.33 -2.3 12.66 -4 13 C-3.01 11.68 -2.02 10.36 -1 9 C-2.32 8.34 -3.64 7.68 -5 7 C-4.67 5.68 -4.34 4.36 -4 3 C-2.02 3.495 -2.02 3.495 0 4 C0 2.68 0 1.36 0 0 Z " fill="#F9F9F9" transform="translate(112,338)"/>
<path d="M0 0 C0.66 0.33 1.32 0.66 2 1 C1.43152344 1.4846875 0.86304688 1.969375 0.27734375 2.46875 C-3.66749292 5.89331605 -7.35315537 9.28287722 -10.6875 13.3125 C-13.43407482 16.57887052 -15.96160358 18.42404042 -20 20 C-20 19.34 -20 18.68 -20 18 C-20.66 17.67 -21.32 17.34 -22 17 C-20.948125 16.5875 -19.89625 16.175 -18.8125 15.75 C-12.68486256 13.0852759 -8.86389758 8.8594247 -4.6484375 3.8046875 C-3 2 -3 2 0 0 Z " fill="#C4C4C4" transform="translate(354,615)"/>
<path d="M0 0 C1.27230469 0.00902344 2.54460937 0.01804687 3.85546875 0.02734375 C5.31919922 0.04474609 5.31919922 0.04474609 6.8125 0.0625 C7.1425 0.7225 7.4725 1.3825 7.8125 2.0625 C6.966875 2.01609375 6.12125 1.9696875 5.25 1.921875 C-5.60215505 1.57657916 -11.2573874 3.92539866 -19.1875 11.0625 C-19.5175 10.0725 -19.8475 9.0825 -20.1875 8.0625 C-18.5865869 6.91212529 -16.98164775 5.76735184 -15.375 4.625 C-14.48167969 3.98691406 -13.58835937 3.34882812 -12.66796875 2.69140625 C-8.38325045 -0.1223379 -5.02521323 -0.04610287 0 0 Z " fill="#C4C4C4" transform="translate(350.1875,612.9375)"/>
<path d="M0 0 C0.66 0.33 1.32 0.66 2 1 C1.67 4.96 1.34 8.92 1 13 C1.66 13.33 2.32 13.66 3 14 C2.32517578 14.56654297 2.32517578 14.56654297 1.63671875 15.14453125 C-0.43575224 17.4939912 -1.17872082 19.73073344 -2.1875 22.6875 C-2.53167969 23.68136719 -2.87585938 24.67523438 -3.23046875 25.69921875 C-3.48441406 26.45847656 -3.73835938 27.21773437 -4 28 C-5.43592078 23.69223767 -4.79151188 19.87229115 -3.02734375 15.69921875 C-1.82296491 12.53486217 -1.34868561 9.53713399 -0.875 6.1875 C-0.62363281 4.44533203 -0.62363281 4.44533203 -0.3671875 2.66796875 C-0.24601562 1.78753906 -0.12484375 0.90710938 0 0 Z " fill="#B4B4B4" transform="translate(315,161)"/>
<path d="M0 0 C0.66 0 1.32 0 2 0 C3.22485812 2.44971624 3.16722808 4.14234461 3.1875 6.875 C3.20167969 7.73867187 3.21585937 8.60234375 3.23046875 9.4921875 C2.98859252 12.1241288 2.32983541 13.73980544 1 16 C-0.74511597 10.76465209 -1.2857653 6.52479577 -1 1 C-0.67 0.67 -0.34 0.34 0 0 Z " fill="#040404" transform="translate(346,114)"/>
<path d="M0 0 C0.66 0 1.32 0 2 0 C2 0.99 2 1.98 2 3 C2.66 3 3.32 3 4 3 C4 4.98 4 6.96 4 9 C3.01 9.495 3.01 9.495 2 10 C1.31068656 12.34907875 1.31068656 12.34907875 0.875 15.0625 C0.70742187 15.98160156 0.53984375 16.90070313 0.3671875 17.84765625 C0.24601563 18.55792969 0.12484375 19.26820313 0 20 C-0.33 20 -0.66 20 -1 20 C-1.18451025 6.3667426 -1.18451025 6.3667426 0 0 Z " fill="#EFEFEF" transform="translate(201,441)"/>
<path d="M0 0 C0.969375 0.86625 1.93875 1.7325 2.9375 2.625 C9.09510346 7.89939165 15.92149054 12.08422881 23 16 C22.34 16.66 21.68 17.32 21 18 C14.346273 14.27773059 8.5212159 10.26619438 3 5 C2.43152344 4.47792969 1.86304688 3.95585937 1.27734375 3.41796875 C0 2 0 2 0 0 Z " fill="#E1E1E1" transform="translate(173,450)"/>
<path d="M0 0 C1.24652344 -0.01417969 2.49304688 -0.02835938 3.77734375 -0.04296875 C7.0625 0.1875 7.0625 0.1875 10.0625 2.1875 C8.65097656 2.26097656 8.65097656 2.26097656 7.2109375 2.3359375 C5.34308594 2.44808594 5.34308594 2.44808594 3.4375 2.5625 C2.20773437 2.63210938 0.97796875 2.70171875 -0.2890625 2.7734375 C-3.77403855 3.1689487 -6.66799601 3.95011849 -9.9375 5.1875 C-9.5625 3.25 -9.5625 3.25 -8.9375 1.1875 C-5.98162889 -0.29043555 -3.28752355 0.01696349 0 0 Z " fill="#DADADA" transform="translate(287.9375,632.8125)"/>
<path d="M0 0 C11.65975104 -0.56016598 11.65975104 -0.56016598 17 3 C17.66 3.66 18.32 4.32 19 5 C18.625 7.125 18.625 7.125 18 9 C17.01 8.67 16.02 8.34 15 8 C15 7.01 15 6.02 15 5 C9.87674471 2.54510684 5.66104589 1.49658297 0 1 C0 0.67 0 0.34 0 0 Z " fill="#EFEFEF" transform="translate(358,633)"/>
<path d="M0 0 C1.65 0.33 3.3 0.66 5 1 C5.78287497 7.10642479 3.10825151 11.00459579 0 16 C-0.33 15.01 -0.66 14.02 -1 13 C0.03001323 11.22966476 1.06306771 9.46055493 2.140625 7.71875 C3.21531041 5.95333159 3.21531041 5.95333159 2.75 3.5625 C2.5025 3.046875 2.255 2.53125 2 2 C0.02 4.97 0.02 4.97 -2 8 C-2.66 7.34 -3.32 6.68 -4 6 C-2.68 4.02 -1.36 2.04 0 0 Z " fill="#D4D4D4" transform="translate(209,399)"/>
<path d="M0 0 C5.89126992 1.55033419 11.02060001 4.54911639 16 8 C16.33 8.66 16.66 9.32 17 10 C14.27386101 9.62136958 12.40449762 9.30686026 10.1875 7.625 C7.03761992 5.28508909 3.69861574 4.29451551 0 3 C0 2.01 0 1.02 0 0 Z " fill="#CCCCCC" transform="translate(265,612)"/>
<path d="M0 0 C0.66 0.33 1.32 0.66 2 1 C2 5.95 2 10.9 2 16 C-0.40860238 13.59139762 -0.94935151 11.93252816 -1.1328125 8.5546875 C-1.13023437 7.67039062 -1.12765625 6.78609375 -1.125 5.875 C-1.12757813 4.98554688 -1.13015625 4.09609375 -1.1328125 3.1796875 C-1 1 -1 1 0 0 Z " fill="#050505" transform="translate(200,398)"/>
<path d="M0 0 C0.66 0.66 1.32 1.32 2 2 C2.99 2 3.98 2 5 2 C4.67 3.65 4.34 5.3 4 7 C3.01 7 2.02 7 1 7 C1.66 6.01 2.32 5.02 3 4 C0.69 5.65 -1.62 7.3 -4 9 C-3.67 9.66 -3.34 10.32 -3 11 C-4.32 11.33 -5.64 11.66 -7 12 C-5.62567077 7.99153975 -3.7110562 5.23577676 -1 2 C-0.67 1.34 -0.34 0.68 0 0 Z " fill="#C3C3C3" transform="translate(329,128)"/>
<path d="M0 0 C0.66 0.33 1.32 0.66 2 1 C2 2.32 2 3.64 2 5 C2.99 5.33 3.98 5.66 5 6 C5 6.66 5 7.32 5 8 C3.88625 7.979375 2.7725 7.95875 1.625 7.9375 C-1.83215921 7.73619282 -1.83215921 7.73619282 -4 9 C-2.94124926 5.59687262 -1.99097846 2.98646769 0 0 Z " fill="#272727" transform="translate(356,122)"/>
<path d="M0 0 C0.66 0.33 1.32 0.66 2 1 C2 2.65 2 4.3 2 6 C1.443125 6.0825 0.88625 6.165 0.3125 6.25 C-2.69714206 7.22610013 -4.62154752 8.95188814 -7 11 C-5.72278474 6.00724943 -3.82669043 3.42388092 0 0 Z " fill="#181818" transform="translate(293,168)"/>
<path d="M0 0 C0.7734375 0.495 0.7734375 0.495 1.5625 1 C-2.23451073 2.26567024 -5.86822313 2.41951679 -9.84375 2.71875 C-12.54896303 2.91931261 -12.54896303 2.91931261 -15.4375 4 C-15.4375 3.01 -15.4375 2.02 -15.4375 1 C-10.23313275 -1.03097258 -5.33602904 -2.18914012 0 0 Z " fill="#DFDFDF" transform="translate(264.4375,612)"/>
<path d="M0 0 C0.99 0.495 0.99 0.495 2 1 C2 1.66 2 2.32 2 3 C2.66 3 3.32 3 4 3 C4.33 2.01 4.66 1.02 5 0 C5.99 4.62 6.98 9.24 8 14 C7.01 14.495 7.01 14.495 6 15 C4.99539469 12.87717331 3.99644398 10.75166979 3 8.625 C2.443125 7.44164062 1.88625 6.25828125 1.3125 5.0390625 C0 2 0 2 0 0 Z " fill="#E0E0E0" transform="translate(144,333)"/>
<path d="M0 0 C1.12588014 0.95729916 2.2506715 1.91587895 3.375 2.875 C4.00148438 3.40867187 4.62796875 3.94234375 5.2734375 4.4921875 C6.55836651 5.61432007 7.79371975 6.79371975 9 8 C9 8.99 9 9.98 9 11 C6.64828869 10.40138258 4.3140622 9.73075648 2 9 C1.67 8.34 1.34 7.68 1 7 C1.99 7 2.98 7 4 7 C3.01 5.824375 3.01 5.824375 2 4.625 C0 2 0 2 0 0 Z " fill="#E3E3E3" transform="translate(98,334)"/>
<path d="M0 0 C1.84180245 3.47704761 3.22825139 7.07434577 4.625 10.75 C5.07101563 11.92046875 5.51703125 13.0909375 5.9765625 14.296875 C6.31429687 15.18890625 6.65203125 16.0809375 7 17 C6.01 17 5.02 17 4 17 C3.18618205 15.06305322 2.37399084 13.12542289 1.5625 11.1875 C1.11003906 10.10855469 0.65757813 9.02960938 0.19140625 7.91796875 C-0.60375013 5.9704874 -1.33479648 3.99561057 -2 2 C-1.34 1.34 -0.68 0.68 0 0 Z " fill="#E2E2E2" transform="translate(103,324)"/>
<path d="M0 0 C1.32 0.33 2.64 0.66 4 1 C0.93978541 6.53192638 -2.4447843 11.77383293 -6 17 C-6.33 16.34 -6.66 15.68 -7 15 C-5.8203125 12.28515625 -5.8203125 12.28515625 -4.125 9.0625 C-1.81191414 4.6381304 -1.81191414 4.6381304 0 0 Z " fill="#D5D5D5" transform="translate(282,211)"/>
<path d="M0 0 C0.33 0.66 0.66 1.32 1 2 C-0.109375 4.3125 -0.109375 4.3125 -1.75 7 C-2.28109375 7.886875 -2.8121875 8.77375 -3.359375 9.6875 C-5 12 -5 12 -8 14 C-7.36561334 10.53466285 -5.98631946 8.20125787 -4 5.3125 C-3.46375 4.52488281 -2.9275 3.73726563 -2.375 2.92578125 C-1 1 -1 1 0 0 Z " fill="#252525" transform="translate(167,371)"/>
<path d="M0 0 C4.71208226 3.2622108 4.71208226 3.2622108 6 6.5625 C6 9 6 9 4.5625 10.8125 C4.046875 11.204375 3.53125 11.59625 3 12 C2.01 10.02 1.02 8.04 0 6 C0.66 5.67 1.32 5.34 2 5 C1.34 3.35 0.68 1.7 0 0 Z " fill="#606060" transform="translate(277,187)"/>
<path d="M0 0 C0.66 0.33 1.32 0.66 2 1 C1.01 3.31 0.02 5.62 -1 8 C-0.01 7.67 0.98 7.34 2 7 C4.1875 7.9375 4.1875 7.9375 6 9 C6 9.33 6 9.66 6 10 C2.6875 10.6875 2.6875 10.6875 -1 11 C-1.99 10.01 -2.98 9.02 -4 8 C-2.68 5.36 -1.36 2.72 0 0 Z " fill="#C2C2C2" transform="translate(354,122)"/>
<path d="M0 0 C0.33 0.99 0.66 1.98 1 3 C-1.15859924 6.83750975 -3.28595371 9.61239881 -7 12 C-4.03846154 2.69230769 -4.03846154 2.69230769 0 0 Z " fill="#0F0F0F" transform="translate(329,125)"/>
<path d="M0 0 C3 1 3 1 4 3 C4.06950541 4.54023996 4.08452357 6.08334988 4.0625 7.625 C4.05347656 8.44226563 4.04445313 9.25953125 4.03515625 10.1015625 C4.02355469 10.72804687 4.01195312 11.35453125 4 12 C0.67617413 7.66457495 -0.12018668 5.52858726 0 0 Z " fill="#050505" transform="translate(315,123)"/>
<path d="M0 0 C0.66 0.33 1.32 0.66 2 1 C0.71284028 2.64936048 -0.57987019 4.29439047 -1.875 5.9375 C-2.95394531 7.31228516 -2.95394531 7.31228516 -4.0546875 8.71484375 C-6 11 -6 11 -8 12 C-6.71999898 6.99635967 -4.82671924 4.43423522 -1 1 C-0.67 0.67 -0.34 0.34 0 0 Z " fill="#1B1B1B" transform="translate(211,432)"/>
<path d="M0 0 C3.3 0.66 6.6 1.32 10 2 C9.34 2.66 8.68 3.32 8 4 C8.33 4.66 8.66 5.32 9 6 C5.7 5.01 2.4 4.02 -1 3 C-0.67 2.01 -0.34 1.02 0 0 Z " fill="#9B9B9B" transform="translate(112,368)"/>
<path d="M0 0 C0.99 0.33 1.98 0.66 3 1 C3.391875 1.825 3.78375 2.65 4.1875 3.5 C5.70437296 6.13719769 5.70437296 6.13719769 7.96875 6.55078125 C9.97085484 6.78694503 11.98644823 6.90097286 14 7 C14 7.33 14 7.66 14 8 C9.72303815 9.02647084 7.65058427 9.31324428 3.625 7.375 C0.80266401 4.82145791 0.20709218 3.72765925 0 0 Z " fill="#BDBDBD" transform="translate(81,341)"/>
<path d="M0 0 C2.24973447 -0.054138 4.49984383 -0.09285491 6.75 -0.125 C8.00296875 -0.14820313 9.2559375 -0.17140625 10.546875 -0.1953125 C13.72820492 -0.01537302 15.36521896 0.31001418 18 2 C17.34 2.66 16.68 3.32 16 4 C15.360625 3.67 14.72125 3.34 14.0625 3 C9.97473001 1.66521796 6.25833433 1.85646064 2 2 C1.01 2 0.02 2 -1 2 C-0.67 1.34 -0.34 0.68 0 0 Z " fill="#B0B0B0" transform="translate(295,613)"/>
<path d="M0 0 C0.33 0 0.66 0 1 0 C1 2.31 1 4.62 1 7 C2.32 5.68 3.64 4.36 5 3 C5.99 3.33 6.98 3.66 8 4 C7.34 4 6.68 4 6 4 C5.71125 4.78375 5.4225 5.5675 5.125 6.375 C4 9 4 9 2 11 C1.34 10.67 0.68 10.34 0 10 C0 6.7 0 3.4 0 0 Z " fill="#C5C5C5" transform="translate(201,431)"/>
<path d="M0 0 C2.475 0.99 2.475 0.99 5 2 C5 2.99 5 3.98 5 5 C3.68 4.34 2.36 3.68 1 3 C1.66 5.31 2.32 7.62 3 10 C2.01 10.495 2.01 10.495 1 11 C0.63890458 9.35567294 0.28629924 7.7094792 -0.0625 6.0625 C-0.25972656 5.14597656 -0.45695313 4.22945313 -0.66015625 3.28515625 C-0.77230469 2.53105469 -0.88445312 1.77695312 -1 1 C-0.67 0.67 -0.34 0.34 0 0 Z " fill="#AFAFAF" transform="translate(189,399)"/>
<path d="M0 0 C2.1875 -0.3125 2.1875 -0.3125 5 0 C6.68762851 1.6454378 8.3540349 3.31288577 10 5 C12.67790896 5.87238858 12.67790896 5.87238858 15 6 C13.625 7.5 13.625 7.5 12 9 C11.34 9 10.68 9 10 9 C8.7876751 7.49278526 7.576344 5.98473171 6.375 4.46875 C4.51749665 2.48459869 2.5836466 1.73818474 0 1 C0 0.67 0 0.34 0 0 Z " fill="#D4D4D4" transform="translate(90,317)"/>
<path d="M0 0 C0.33 0 0.66 0 1 0 C1.33 5.61 1.66 11.22 2 17 C2.66 17 3.32 17 4 17 C3.67 17.99 3.34 18.98 3 20 C2.01 20.33 1.02 20.66 0 21 C0 14.07 0 7.14 0 0 Z " fill="#585858" transform="translate(284,189)"/>
<path d="M0 0 C2.31 1.98 4.62 3.96 7 6 C6.67 6.66 6.34 7.32 6 8 C5.01 7.34 4.02 6.68 3 6 C3.66 7.32 4.32 8.64 5 10 C4.01 10 3.02 10 2 10 C0.68373308 6.38026598 0 3.90432869 0 0 Z " fill="#DEDEDE" transform="translate(275,183)"/>
<path d="M0 0 C2.7972908 2.06756277 3.02692273 3.14440371 3.6875 6.6875 C3.790625 7.780625 3.89375 8.87375 4 10 C2.0625 9.4375 2.0625 9.4375 0 8 C-0.8125 4.4375 -0.8125 4.4375 -1 1 C-0.67 0.67 -0.34 0.34 0 0 Z " fill="#252525" transform="translate(280,167)"/>
<path d="M0 0 C0.66 0 1.32 0 2 0 C2 5.61 2 11.22 2 17 C1.67 17 1.34 17 1 17 C1 14.36 1 11.72 1 9 C0.34 9 -0.32 9 -1 9 C-1.08886184 5.80097361 -0.91058531 3.07322544 0 0 Z " fill="#E5E5E5" transform="translate(282,191)"/>
<path d="M0 0 C3 2 3 2 4 4 C3.01 4 2.02 4 1 4 C1 4.66 1 5.32 1 6 C-0.98 6.66 -2.96 7.32 -5 8 C-3.62845496 5.04590299 -2.01136276 2.55991624 0 0 Z " fill="#DBDBDB" transform="translate(340,149)"/>
<path d="M0 0 C0.99 0 1.98 0 3 0 C2.4359146 3.94859783 1.2568294 6.70879046 -1 10 C-1.33 10 -1.66 10 -2 10 C-1.125 2.25 -1.125 2.25 0 0 Z " fill="#121212" transform="translate(352,119)"/>
<path d="M0 0 C0.66 0.33 1.32 0.66 2 1 C2 1.66 2 2.32 2 3 C3.65 2.34 5.3 1.68 7 1 C6.67 1.99 6.34 2.98 6 4 C4.66666667 4.66666667 3.33333333 5.33333333 2 6 C1.01 7.32 0.02 8.64 -1 10 C-0.67 6.7 -0.34 3.4 0 0 Z " fill="#AEAEAE" transform="translate(288,165)"/>
<path d="M0 0 C1.8587516 3.1241325 2.20151847 5.09317534 1.75 8.6875 C1.61851562 9.86892578 1.61851562 9.86892578 1.484375 11.07421875 C1.32453125 11.70972656 1.1646875 12.34523437 1 13 C0.01 13.495 0.01 13.495 -1 14 C-2.29914639 9.38081284 -1.77764428 5.66586566 -1 1 C-0.67 0.67 -0.34 0.34 0 0 Z " fill="#9E9E9E" transform="translate(350,117)"/>
<path d="M0 0 C1.62723299 0.45034123 3.25173664 0.91055354 4.875 1.375 C5.77992187 1.63023437 6.68484375 1.88546875 7.6171875 2.1484375 C10 3 10 3 12 5 C7.12335991 5.34833144 4.22949995 4.41685712 0 2 C0 1.34 0 0.68 0 0 Z " fill="#171717" transform="translate(110,372)"/>
<path d="M0 0 C2.64 0 5.28 0 8 0 C8 0.99 8 1.98 8 3 C5.36 3 2.72 3 0 3 C0 2.01 0 1.02 0 0 Z " fill="#1C1C1C" transform="translate(323,636)"/>
<path d="M0 0 C0 0.66 0 1.32 0 2 C-1.96875 3.5078125 -1.96875 3.5078125 -4.5 5.125 C-5.3353125 5.66382813 -6.170625 6.20265625 -7.03125 6.7578125 C-7.6809375 7.16773438 -8.330625 7.57765625 -9 8 C-9 7.01 -9 6.02 -9 5 C-7.5390625 3.61328125 -7.5390625 3.61328125 -5.625 2.3125 C-4.68527344 1.65701172 -4.68527344 1.65701172 -3.7265625 0.98828125 C-2 0 -2 0 0 0 Z " fill="#D3D3D3" transform="translate(168,365)"/>
<path d="M0 0 C4.2742558 1.5830577 6.26531794 4.50568404 9 8 C4.66314164 8 3.0556673 5.91985986 0 3 C0 2.01 0 1.02 0 0 Z " fill="#E4E4E4" transform="translate(142,345)"/>
<path d="M0 0 C2.98704569 0.49784095 4.39324263 1.26216175 7 3 C7.33 2.34 7.66 1.68 8 1 C7.67 3.31 7.34 5.62 7 8 C6.13375 6.824375 6.13375 6.824375 5.25 5.625 C3.17102363 3.19952756 1.90959667 2.14305583 -1 1 C-0.67 0.67 -0.34 0.34 0 0 Z " fill="#F3F3F3" transform="translate(104,321)"/>
<path d="M0 0 C3.76687864 3.76687864 4.67652988 5.14727622 6 10 C5.01 10.33 4.02 10.66 3 11 C2.01 7.37 1.02 3.74 0 0 Z " fill="#D0D0D0" transform="translate(307,141)"/>
<path d="M0 0 C0 3 0 3 -1.75 5.25 C-2.86375 6.11625 -2.86375 6.11625 -4 7 C-5.32 6.67 -6.64 6.34 -8 6 C-5.36 4.02 -2.72 2.04 0 0 Z " fill="#353535" transform="translate(332,131)"/>
<path d="M0 0 C6.57142857 4 6.57142857 4 8 8 C4.11137013 6.73882275 2.10624401 5.54735833 0 2 C0 1.34 0 0.68 0 0 Z " fill="#1E1E1E" transform="translate(190,412)"/>
<path d="M0 0 C1.32 0 2.64 0 4 0 C5.0326802 2.78823655 5.04509293 3.8677274 4.0625 6.75 C3.711875 7.4925 3.36125 8.235 3 9 C2.67 9 2.34 9 2 9 C1.34 6.03 0.68 3.06 0 0 Z " fill="#F0F0F0" transform="translate(318,135)"/>
<path d="M0 0 C0.33 0 0.66 0 1 0 C0.88590407 1.45922693 0.75834456 2.91740598 0.625 4.375 C0.55539062 5.18710938 0.48578125 5.99921875 0.4140625 6.8359375 C0 9 0 9 -2 11 C-2.25 3.375 -2.25 3.375 0 0 Z " fill="#090909" transform="translate(323,123)"/>
<path d="M0 0 C1.98 0 3.96 0 6 0 C6.33 1.32 6.66 2.64 7 4 C6.05125 3.79375 5.1025 3.5875 4.125 3.375 C3.09375 3.25125 2.0625 3.1275 1 3 C0.34 3.66 -0.32 4.32 -1 5 C-0.67 3.35 -0.34 1.7 0 0 Z " fill="#E9E9E9" transform="translate(417,628)"/>
<path d="M0 0 C7.48291572 6.15034169 7.48291572 6.15034169 10 10 C7 10 7 10 5.17578125 8.3203125 C4.56089844 7.59585938 3.94601562 6.87140625 3.3125 6.125 C2.68988281 5.40570312 2.06726563 4.68640625 1.42578125 3.9453125 C0 2 0 2 0 0 Z " fill="#CDCDCD" transform="translate(302,620)"/>
<path d="M0 0 C-0.33 0.99 -0.66 1.98 -1 3 C-4.5625 4.6875 -4.5625 4.6875 -8 6 C-8.33 5.34 -8.66 4.68 -9 4 C-2.25 0 -2.25 0 0 0 Z " fill="#D2D2D2" transform="translate(384,613)"/>
<path d="M0 0 C3.21965664 1.36216242 4.81687435 2.72531153 6.75 5.625 C7.39195312 6.57246094 7.39195312 6.57246094 8.046875 7.5390625 C8.51867187 8.26222656 8.51867187 8.26222656 9 9 C8.01 9 7.02 9 6 9 C4.39453125 7.03125 4.39453125 7.03125 2.8125 4.5 C2.28269531 3.6646875 1.75289062 2.829375 1.20703125 1.96875 C0.80871094 1.3190625 0.41039062 0.669375 0 0 Z " fill="#C5C5C5" transform="translate(169,425)"/>
<path d="M0 0 C-0.33 2.31 -0.66 4.62 -1 7 C-1.99 6.34 -2.98 5.68 -4 5 C-4 3.68 -4 2.36 -4 1 C-2 0 -2 0 0 0 Z " fill="#747474" transform="translate(332,121)"/>
<path d="M0 0 C1.9375 0.8125 1.9375 0.8125 4 2 C4.33 2.99 4.66 3.98 5 5 C4.34 5 3.68 5 3 5 C2.34 4.34 1.68 3.68 1 3 C1 4.65 1 6.3 1 8 C-1 6 -1 6 -1.1875 3.4375 C-1 1 -1 1 0 0 Z " fill="#A8A8A8" transform="translate(279,165)"/>
<path d="M0 0 C2.4375 1.125 2.4375 1.125 5 3 C5.8125 6.1875 5.8125 6.1875 6 9 C3.59927045 6.11912454 1.52708963 3.43595166 0 0 Z " fill="#212121" transform="translate(310,145)"/>
<path d="M0 0 C1.20628008 2.33214148 2.1654738 4.49642139 3 7 C0.525 6.01 0.525 6.01 -2 5 C-1.125 1.125 -1.125 1.125 0 0 Z " fill="#EDEDED" transform="translate(277,636)"/>
<path d="M0 0 C0.99 0.33 1.98 0.66 3 1 C3 1.66 3 2.32 3 3 C1.02 3.66 -0.96 4.32 -3 5 C-2.625 3.0625 -2.625 3.0625 -2 1 C-1.34 0.67 -0.68 0.34 0 0 Z " fill="#D4D4D4" transform="translate(281,633)"/>
<path d="M0 0 C-0.33 0.99 -0.66 1.98 -1 3 C-2.65 3.33 -4.3 3.66 -6 4 C-6.33 3.01 -6.66 2.02 -7 1 C-2.25 0 -2.25 0 0 0 Z " fill="#E8E8E8" transform="translate(330,622)"/>
<path d="M0 0 C3.79588866 0.54226981 5.47211993 2.20127563 8 5 C4.75791433 4.64950425 3.38472296 4.43778819 1.1875 1.9375 C0.795625 1.298125 0.40375 0.65875 0 0 Z " fill="#D4D4D4" transform="translate(274,617)"/>
<path d="M0 0 C3 4 3 4 2.6875 7.25 C2.460625 8.1575 2.23375 9.065 2 10 C1.67 10 1.34 10 1 10 C0.67 6.7 0.34 3.4 0 0 Z " fill="#C3C3C3" transform="translate(159,417)"/>
<path d="M0 0 C0.66 0.33 1.32 0.66 2 1 C2 2.65 2 4.3 2 6 C-1 5 -1 5 -2 4 C-2.99 4.495 -2.99 4.495 -4 5 C-2.25 1.125 -2.25 1.125 0 0 Z " fill="#494949" transform="translate(293,168)"/>
</svg>
